<?xml version="1.0" encoding="UTF-8" standalone="no"?>
<svg
   width="201.36365pt"
   height="163.5959pt"
   viewBox="0 0 201.36365 163.5959"
   version="1.1"
   id="svg56"
   sodipodi:docname="diag_bif_S.svg"
   inkscape:version="1.4 (e7c3feb1, 2024-10-09)"
   xmlns:inkscape="http://www.inkscape.org/namespaces/inkscape"
   xmlns:sodipodi="http://sodipodi.sourceforge.net/DTD/sodipodi-0.dtd"
   xmlns:xlink="http://www.w3.org/1999/xlink"
   xmlns="http://www.w3.org/2000/svg"
   xmlns:svg="http://www.w3.org/2000/svg"
   xmlns:rdf="http://www.w3.org/1999/02/22-rdf-syntax-ns#"
   xmlns:cc="http://creativecommons.org/ns#"
   xmlns:dc="http://purl.org/dc/elements/1.1/">
  <sodipodi:namedview
     id="namedview56"
     pagecolor="#ffffff"
     bordercolor="#000000"
     borderopacity="0.25"
     inkscape:showpageshadow="2"
     inkscape:pageopacity="0.0"
     inkscape:pagecheckerboard="0"
     inkscape:deskcolor="#d1d1d1"
     inkscape:document-units="pt"
     inkscape:zoom="1.5945217"
     inkscape:cx="132.01451"
     inkscape:cy="91.877083"
     inkscape:window-width="1512"
     inkscape:window-height="916"
     inkscape:window-x="0"
     inkscape:window-y="38"
     inkscape:window-maximized="0"
     inkscape:current-layer="svg56" />
  <metadata
     id="metadata1">
    <rdf:RDF>
      <cc:Work>
        <dc:type
           rdf:resource="http://purl.org/dc/dcmitype/StillImage" />
        <dc:date>2025-10-07T16:19:35.728293</dc:date>
        <dc:format>image/svg+xml</dc:format>
        <dc:creator>
          <cc:Agent>
            <dc:title>Matplotlib v3.7.3, https://matplotlib.org/</dc:title>
          </cc:Agent>
        </dc:creator>
      </cc:Work>
    </rdf:RDF>
  </metadata>
  <defs
     id="defs1">
    <style
       type="text/css"
       id="style1">*{stroke-linejoin: round; stroke-linecap: butt}</style>
    <defs
       id="id-64220cf3-1246-4e1d-a842-20fac04ea909">
      <g
         id="id-e0b2199d-c07d-4a9f-8314-faaf1f42da71">
        <g
           id="id-9b490121-2780-4d37-b875-69cd3e491980">
          <path
             d="m 6.4375,-6.921875 c 0,-0.03125 -0.03125,-0.109375 -0.125,-0.109375 -0.046875,0 -0.046875,0.015625 -0.171875,0.15625 L 5.65625,-6.3125 c -0.25,-0.46875 -0.765625,-0.71875 -1.421875,-0.71875 -1.265625,0 -2.453125,1.15625 -2.453125,2.359375 0,0.796875 0.515625,1.265625 1.03125,1.40625 l 1.0625,0.28125 c 0.375,0.09375 0.921875,0.25 0.921875,1.0625 0,0.890625 -0.8125,1.828125 -1.796875,1.828125 -0.640625,0 -1.75,-0.21875 -1.75,-1.453125 0,-0.234375 0.0625,-0.484375 0.0625,-0.53125 0.015625,-0.046875 0.015625,-0.0625 0.015625,-0.078125 0,-0.09375 -0.0625,-0.109375 -0.109375,-0.109375 -0.046875,0 -0.078125,0.015625 -0.109375,0.046875 -0.03125,0.03125 -0.59375,2.3125 -0.59375,2.34375 0,0.046875 0.046875,0.09375 0.109375,0.09375 0.046875,0 0.0625,-0.015625 0.1875,-0.15625 L 1.296875,-0.5 c 0.421875,0.578125 1.109375,0.71875 1.6875,0.71875 1.359375,0 2.53125,-1.328125 2.53125,-2.5625 0,-0.6875 -0.34375,-1.03125 -0.484375,-1.171875 C 4.796875,-3.734375 4.640625,-3.78125 3.765625,-4 3.53125,-4.0625 3.1875,-4.171875 3.09375,-4.1875 2.828125,-4.28125 2.484375,-4.5625 2.484375,-5.09375 c 0,-0.8125 0.796875,-1.65625 1.75,-1.65625 0.8125,0 1.421875,0.4375 1.421875,1.546875 0,0.3125 -0.03125,0.5 -0.03125,0.5625 0,0 0,0.09375 0.109375,0.09375 0.109375,0 0.125,-0.03125 0.15625,-0.203125 z m 0,0"
             id="id-a53c4a97-5b92-4025-9c0f-f4a4713f1169" />
        </g>
        <g
           id="id-aa520487-9b8e-431f-86e2-3b75782ec55a">
          <path
             d="M 3.71875,-3.765625 C 3.53125,-4.140625 3.25,-4.40625 2.796875,-4.40625 c -1.15625,0 -2.390625,1.46875 -2.390625,2.921875 0,0.9375 0.546875,1.59375 1.3125,1.59375 0.203125,0 0.703125,-0.046875 1.296875,-0.75 0.078125,0.421875 0.4375,0.75 0.90625,0.75 0.359375,0 0.578125,-0.234375 0.75,-0.546875 0.15625,-0.359375 0.296875,-0.96875 0.296875,-0.984375 0,-0.109375 -0.09375,-0.109375 -0.125,-0.109375 -0.09375,0 -0.109375,0.046875 -0.140625,0.1875 -0.171875,0.640625 -0.34375,1.234375 -0.75,1.234375 -0.28125,0 -0.296875,-0.265625 -0.296875,-0.453125 0,-0.21875 0.015625,-0.3125 0.125,-0.75 C 3.890625,-1.71875 3.90625,-1.828125 4,-2.203125 L 4.359375,-3.59375 c 0.0625,-0.28125 0.0625,-0.296875 0.0625,-0.34375 0,-0.171875 -0.109375,-0.265625 -0.28125,-0.265625 -0.25,0 -0.390625,0.21875 -0.421875,0.4375 z M 3.078125,-1.1875 C 3.015625,-1 3.015625,-0.984375 2.875,-0.8125 2.4375,-0.265625 2.03125,-0.109375 1.75,-0.109375 c -0.5,0 -0.640625,-0.546875 -0.640625,-0.9375 0,-0.5 0.3125,-1.71875 0.546875,-2.1875 0.3125,-0.578125 0.75,-0.953125 1.15625,-0.953125 0.640625,0 0.78125,0.8125 0.78125,0.875 0,0.0625 -0.015625,0.125 -0.03125,0.171875 z m 0,0"
             id="id-4937a766-9494-4eb4-b563-07ba40e99300" />
        </g>
      </g>
    </defs>
  </defs>
  <g
     id="patch_1"
     transform="translate(21.363648)">
    <path
       d="M 0,144 H 180 V 0 H 0 Z"
       style="fill:#ffffff"
       id="path1" />
  </g>
  <g
     id="patch_2"
     transform="translate(21.363648)">
    <path
       d="M 22.5,128.16 H 162 V 17.28 H 22.5 Z"
       style="fill:#ffffff"
       id="path2" />
  </g>
  <g
     id="xtick_1"
     transform="translate(21.363648)">
    <g
       id="line2d_1">
      <defs
         id="defs2">
        <path
           id="me2dd737366"
           d="M 0,0 V 3.5"
           style="stroke:#000000;stroke-width:0.8" />
      </defs>
      <g
         id="g2">
        <use
           xlink:href="#me2dd737366"
           x="22.5"
           y="128.16"
           style="stroke:#000000;stroke-width:0.8"
           id="use2" />
      </g>
    </g>
    <g
       id="text_1">
      <!-- 0.00 -->
      <g
         transform="matrix(0.1,0,0,-0.1,11.367188,142.75844)"
         id="g6">
        <defs
           id="defs3">
          <path
             id="DejaVuSans-30"
             d="m 2034,4250 q -487,0 -733,-480 -245,-479 -245,-1442 0,-959 245,-1439 246,-480 733,-480 491,0 736,480 246,480 246,1439 0,963 -246,1442 -245,480 -736,480 z m 0,500 q 785,0 1199,-621 414,-620 414,-1801 0,-1178 -414,-1799 -414,-620 -1199,-620 -784,0 -1198,620 -414,621 -414,1799 0,1181 414,1801 414,621 1198,621 z"
             transform="scale(0.015625)" />
          <path
             id="DejaVuSans-2e"
             d="m 684,794 h 660 V 0 H 684 Z"
             transform="scale(0.015625)" />
        </defs>
        <use
           xlink:href="#DejaVuSans-30"
           id="use3" />
        <use
           xlink:href="#DejaVuSans-2e"
           x="63.623047"
           id="use4" />
        <use
           xlink:href="#DejaVuSans-30"
           x="95.410156"
           id="use5" />
        <use
           xlink:href="#DejaVuSans-30"
           x="159.0332"
           id="use6" />
      </g>
    </g>
  </g>
  <g
     id="xtick_2"
     transform="translate(21.363648)">
    <g
       id="line2d_2">
      <g
         id="g7">
        <use
           xlink:href="#me2dd737366"
           x="57.375"
           y="128.16"
           style="stroke:#000000;stroke-width:0.8"
           id="use7" />
      </g>
    </g>
    <g
       id="text_2">
      <!-- 0.25 -->
      <g
         transform="matrix(0.1,0,0,-0.1,46.242188,142.75844)"
         id="g11">
        <defs
           id="defs7">
          <path
             id="DejaVuSans-32"
             d="M 1228,531 H 3431 V 0 H 469 v 531 q 359,372 979,998 621,627 780,809 303,340 423,576 121,236 121,464 0,372 -261,606 -261,235 -680,235 -297,0 -627,-103 -329,-103 -704,-313 v 638 q 381,153 712,231 332,78 607,78 725,0 1156,-363 431,-362 431,-968 0,-288 -108,-546 -107,-257 -392,-607 -78,-91 -497,-524 Q 1991,1309 1228,531 Z"
             transform="scale(0.015625)" />
          <path
             id="DejaVuSans-35"
             d="M 691,4666 H 3169 V 4134 H 1269 V 2991 q 137,47 274,70 138,23 276,23 781,0 1237,-428 457,-428 457,-1159 Q 3513,744 3044,326 2575,-91 1722,-91 1428,-91 1123,-41 819,9 494,109 v 635 q 281,-153 581,-228 300,-75 634,-75 541,0 856,284 316,284 316,772 0,487 -316,771 -315,285 -856,285 -253,0 -505,-56 -251,-56 -513,-175 z"
             transform="scale(0.015625)" />
        </defs>
        <use
           xlink:href="#DejaVuSans-30"
           id="use8" />
        <use
           xlink:href="#DejaVuSans-2e"
           x="63.623047"
           id="use9" />
        <use
           xlink:href="#DejaVuSans-32"
           x="95.410156"
           id="use10" />
        <use
           xlink:href="#DejaVuSans-35"
           x="159.0332"
           id="use11" />
      </g>
    </g>
  </g>
  <g
     id="xtick_3"
     transform="translate(21.363648)">
    <g
       id="line2d_3">
      <g
         id="g12">
        <use
           xlink:href="#me2dd737366"
           x="92.25"
           y="128.16"
           style="stroke:#000000;stroke-width:0.8"
           id="use12" />
      </g>
    </g>
    <g
       id="text_3">
      <!-- 0.50 -->
      <g
         transform="matrix(0.1,0,0,-0.1,81.117188,142.75844)"
         id="g16">
        <use
           xlink:href="#DejaVuSans-30"
           id="use13" />
        <use
           xlink:href="#DejaVuSans-2e"
           x="63.623047"
           id="use14" />
        <use
           xlink:href="#DejaVuSans-35"
           x="95.410156"
           id="use15" />
        <use
           xlink:href="#DejaVuSans-30"
           x="159.0332"
           id="use16" />
      </g>
    </g>
  </g>
  <g
     id="xtick_4"
     transform="translate(21.363648)">
    <g
       id="line2d_4">
      <g
         id="g17">
        <use
           xlink:href="#me2dd737366"
           x="127.125"
           y="128.16"
           style="stroke:#000000;stroke-width:0.8"
           id="use17" />
      </g>
    </g>
    <g
       id="text_4">
      <!-- 0.75 -->
      <g
         transform="matrix(0.1,0,0,-0.1,115.99219,142.75844)"
         id="g21">
        <defs
           id="defs17">
          <path
             id="DejaVuSans-37"
             d="M 525,4666 H 3525 V 4397 L 1831,0 H 1172 L 2766,4134 H 525 Z"
             transform="scale(0.015625)" />
        </defs>
        <use
           xlink:href="#DejaVuSans-30"
           id="use18" />
        <use
           xlink:href="#DejaVuSans-2e"
           x="63.623047"
           id="use19" />
        <use
           xlink:href="#DejaVuSans-37"
           x="95.410156"
           id="use20" />
        <use
           xlink:href="#DejaVuSans-35"
           x="159.0332"
           id="use21" />
      </g>
    </g>
  </g>
  <g
     id="xtick_5"
     transform="translate(21.363648)">
    <g
       id="line2d_5">
      <g
         id="g22">
        <use
           xlink:href="#me2dd737366"
           x="162"
           y="128.16"
           style="stroke:#000000;stroke-width:0.8"
           id="use22" />
      </g>
    </g>
    <g
       id="text_5">
      <!-- 1.00 -->
      <g
         transform="matrix(0.1,0,0,-0.1,150.86719,142.75844)"
         id="g26">
        <defs
           id="defs22">
          <path
             id="DejaVuSans-31"
             d="M 794,531 H 1825 V 4091 L 703,3866 v 575 l 1116,225 h 631 V 531 H 3481 V 0 H 794 Z"
             transform="scale(0.015625)" />
        </defs>
        <use
           xlink:href="#DejaVuSans-31"
           id="use23" />
        <use
           xlink:href="#DejaVuSans-2e"
           x="63.623047"
           id="use24" />
        <use
           xlink:href="#DejaVuSans-30"
           x="95.410156"
           id="use25" />
        <use
           xlink:href="#DejaVuSans-30"
           x="159.0332"
           id="use26" />
      </g>
    </g>
  </g>
  <g
     id="ytick_1"
     transform="translate(21.363648)">
    <g
       id="line2d_6">
      <defs
         id="defs27">
        <path
           id="m162df38f59"
           d="M 0,0 H -3.5"
           style="stroke:#000000;stroke-width:0.8" />
      </defs>
      <g
         id="g28">
        <use
           xlink:href="#m162df38f59"
           x="22.5"
           y="128.16"
           style="stroke:#000000;stroke-width:0.8"
           id="use28" />
      </g>
    </g>
    <g
       id="text_7">
      <!-- &#8722;1.0 -->
      <g
         transform="matrix(0.1,0,0,-0.1,-8.782813,131.95922)"
         id="g32">
        <defs
           id="defs28">
          <path
             id="DejaVuSans-2212"
             d="M 678,2272 H 4684 V 1741 H 678 Z"
             transform="scale(0.015625)" />
        </defs>
        <use
           xlink:href="#DejaVuSans-2212"
           id="use29" />
        <use
           xlink:href="#DejaVuSans-31"
           x="83.789062"
           id="use30" />
        <use
           xlink:href="#DejaVuSans-2e"
           x="147.41211"
           id="use31" />
        <use
           xlink:href="#DejaVuSans-30"
           x="179.19922"
           id="use32" />
      </g>
    </g>
  </g>
  <g
     id="ytick_2"
     transform="translate(21.363648)">
    <g
       id="line2d_7">
      <g
         id="g33">
        <use
           xlink:href="#m162df38f59"
           x="22.5"
           y="100.44"
           style="stroke:#000000;stroke-width:0.8"
           id="use33" />
      </g>
    </g>
    <g
       id="text_8">
      <!-- &#8722;0.5 -->
      <g
         transform="matrix(0.1,0,0,-0.1,-8.782813,104.23922)"
         id="g37">
        <use
           xlink:href="#DejaVuSans-2212"
           id="use34" />
        <use
           xlink:href="#DejaVuSans-30"
           x="83.789062"
           id="use35" />
        <use
           xlink:href="#DejaVuSans-2e"
           x="147.41211"
           id="use36" />
        <use
           xlink:href="#DejaVuSans-35"
           x="179.19922"
           id="use37" />
      </g>
    </g>
  </g>
  <g
     id="ytick_3"
     transform="translate(21.363648)">
    <g
       id="line2d_8">
      <g
         id="g38">
        <use
           xlink:href="#m162df38f59"
           x="22.5"
           y="72.720001"
           style="stroke:#000000;stroke-width:0.8"
           id="use38" />
      </g>
    </g>
    <g
       id="text_9">
      <!-- 0.0 -->
      <g
         transform="matrix(0.1,0,0,-0.1,-0.403125,76.519219)"
         id="g41">
        <use
           xlink:href="#DejaVuSans-30"
           id="use39" />
        <use
           xlink:href="#DejaVuSans-2e"
           x="63.623047"
           id="use40" />
        <use
           xlink:href="#DejaVuSans-30"
           x="95.410156"
           id="use41" />
      </g>
    </g>
  </g>
  <g
     id="ytick_4"
     transform="translate(21.363648)">
    <g
       id="line2d_9">
      <g
         id="g42">
        <use
           xlink:href="#m162df38f59"
           x="22.5"
           y="45"
           style="stroke:#000000;stroke-width:0.8"
           id="use42" />
      </g>
    </g>
    <g
       id="text_10">
      <!-- 0.5 -->
      <g
         transform="matrix(0.1,0,0,-0.1,-0.403125,48.799219)"
         id="g45">
        <use
           xlink:href="#DejaVuSans-30"
           id="use43" />
        <use
           xlink:href="#DejaVuSans-2e"
           x="63.623047"
           id="use44" />
        <use
           xlink:href="#DejaVuSans-35"
           x="95.410156"
           id="use45" />
      </g>
    </g>
  </g>
  <g
     id="ytick_5"
     transform="translate(21.363648)">
    <g
       id="line2d_10">
      <g
         id="g46">
        <use
           xlink:href="#m162df38f59"
           x="22.5"
           y="17.280001"
           style="stroke:#000000;stroke-width:0.8"
           id="use46" />
      </g>
    </g>
    <g
       id="text_11">
      <!-- 1.0 -->
      <g
         transform="matrix(0.1,0,0,-0.1,-0.403125,21.079219)"
         id="g49">
        <use
           xlink:href="#DejaVuSans-31"
           id="use47" />
        <use
           xlink:href="#DejaVuSans-2e"
           x="63.623047"
           id="use48" />
        <use
           xlink:href="#DejaVuSans-30"
           x="95.410156"
           id="use49" />
      </g>
    </g>
  </g>
  <g
     id="line2d_11"
     transform="translate(21.363648)">
    <path
       d="M 22.5,72.72 H 162 v 0"
       clip-path="url(#p5a85849b80)"
       style="fill:none;stroke:#353535;stroke-linecap:square"
       id="path50" />
  </g>
  <g
     id="line2d_12"
     transform="translate(21.363648)">
    <path
       d="M 69,128.16 V 17.28"
       clip-path="url(#p5a85849b80)"
       style="fill:none;stroke:#353535;stroke-width:1.5;stroke-dasharray:5.55, 2.4;stroke-dashoffset:0"
       id="path51" />
  </g>
  <g
     id="line2d_13"
     transform="translate(21.363648)">
    <path
       d="m 38.700176,145 1.673698,-8.18769 1.815315,-7.71184 1.815316,-6.75024 1.954954,-6.411 2.094595,-6.07294 2.094595,-5.40424 2.234234,-5.161314 2.373874,-4.921371 2.513513,-4.688399 2.653153,-4.465042 2.792793,-4.252946 2.932433,-4.053017 3.072072,-3.865648 3.211711,-3.690866 3.490991,-3.669087 3.630631,-3.49597 3.90991,-3.456926 4.189189,-3.404588 4.468469,-3.343908 4.887387,-3.371654 5.166671,-3.29229 5.58558,-3.296916 6.14415,-3.365842 6.7027,-3.416691 7.54054,-3.588261 8.51802,-3.80063 10.19369,-4.293392 L 160.6036,17.83501 162,17.28 v 0"
       clip-path="url(#p5a85849b80)"
       style="fill:none;stroke:#2c56a3;stroke-width:1.5;stroke-linecap:square"
       id="path52" />
  </g>
  <g
     id="patch_3"
     transform="translate(21.363648)">
    <path
       d="M 22.5,128.16 V 17.28"
       style="fill:none;stroke:#000000;stroke-width:0.8;stroke-linecap:square;stroke-linejoin:miter"
       id="path53" />
  </g>
  <g
     id="patch_4"
     transform="translate(21.363648)">
    <path
       d="M 162,128.16 V 17.28"
       style="fill:none;stroke:#000000;stroke-width:0.8;stroke-linecap:square;stroke-linejoin:miter"
       id="path54" />
  </g>
  <g
     id="patch_5"
     transform="translate(21.363648)">
    <path
       d="M 22.5,128.16 H 162"
       style="fill:none;stroke:#000000;stroke-width:0.8;stroke-linecap:square;stroke-linejoin:miter"
       id="path55" />
  </g>
  <g
     id="patch_6"
     transform="translate(21.363648)">
    <path
       d="M 22.5,17.28 H 162"
       style="fill:none;stroke:#000000;stroke-width:0.8;stroke-linecap:square;stroke-linejoin:miter"
       id="path56" />
  </g>
  <defs
     id="defs56">
    <clipPath
       id="p5a85849b80">
      <rect
         x="22.5"
         y="17.280001"
         width="139.5"
         height="110.88"
         id="rect56" />
    </clipPath>
  </defs>
  <g
     fill="#000000"
     fill-opacity="1"
     id="id-71762932-f152-49c8-b2a1-2600a033550b"
     transform="matrix(1.9815996,0,0,1.9815996,-295.7094,-191.15815)"
     style="fill:#353535;fill-opacity:1">
    <g
       transform="translate(148.712,134.765)"
       id="g57"
       style="fill:#353535;fill-opacity:1">
      <path
         d="m 6.4375,-6.921875 c 0,-0.03125 -0.03125,-0.109375 -0.125,-0.109375 -0.046875,0 -0.046875,0.015625 -0.171875,0.15625 L 5.65625,-6.3125 c -0.25,-0.46875 -0.765625,-0.71875 -1.421875,-0.71875 -1.265625,0 -2.453125,1.15625 -2.453125,2.359375 0,0.796875 0.515625,1.265625 1.03125,1.40625 l 1.0625,0.28125 c 0.375,0.09375 0.921875,0.25 0.921875,1.0625 0,0.890625 -0.8125,1.828125 -1.796875,1.828125 -0.640625,0 -1.75,-0.21875 -1.75,-1.453125 0,-0.234375 0.0625,-0.484375 0.0625,-0.53125 0.015625,-0.046875 0.015625,-0.0625 0.015625,-0.078125 0,-0.09375 -0.0625,-0.109375 -0.109375,-0.109375 -0.046875,0 -0.078125,0.015625 -0.109375,0.046875 -0.03125,0.03125 -0.59375,2.3125 -0.59375,2.34375 0,0.046875 0.046875,0.09375 0.109375,0.09375 0.046875,0 0.0625,-0.015625 0.1875,-0.15625 L 1.296875,-0.5 c 0.421875,0.578125 1.109375,0.71875 1.6875,0.71875 1.359375,0 2.53125,-1.328125 2.53125,-2.5625 0,-0.6875 -0.34375,-1.03125 -0.484375,-1.171875 C 4.796875,-3.734375 4.640625,-3.78125 3.765625,-4 3.53125,-4.0625 3.1875,-4.171875 3.09375,-4.1875 2.828125,-4.28125 2.484375,-4.5625 2.484375,-5.09375 c 0,-0.8125 0.796875,-1.65625 1.75,-1.65625 0.8125,0 1.421875,0.4375 1.421875,1.546875 0,0.3125 -0.03125,0.5 -0.03125,0.5625 0,0 0,0.09375 0.109375,0.09375 0.109375,0 0.125,-0.03125 0.15625,-0.203125 z m 0,0"
         id="id-de2abbdc-d13e-4812-a7ce-99d5363c5fd2"
         style="fill:#353535;fill-opacity:1" />
    </g>
  </g>
  <g
     fill="#000000"
     fill-opacity="1"
     id="id-7e9e4b4b-440a-4c65-bff3-68df8de5bda6"
     transform="matrix(1.9815996,0,0,1.9815996,-201.78965,-103.6711)"
     style="fill:#353535;fill-opacity:1">
    <g
       transform="translate(155.399,134.765)"
       id="g58"
       style="fill:#353535;fill-opacity:1">
      <path
         d="M 3.71875,-3.765625 C 3.53125,-4.140625 3.25,-4.40625 2.796875,-4.40625 c -1.15625,0 -2.390625,1.46875 -2.390625,2.921875 0,0.9375 0.546875,1.59375 1.3125,1.59375 0.203125,0 0.703125,-0.046875 1.296875,-0.75 0.078125,0.421875 0.4375,0.75 0.90625,0.75 0.359375,0 0.578125,-0.234375 0.75,-0.546875 0.15625,-0.359375 0.296875,-0.96875 0.296875,-0.984375 0,-0.109375 -0.09375,-0.109375 -0.125,-0.109375 -0.09375,0 -0.109375,0.046875 -0.140625,0.1875 -0.171875,0.640625 -0.34375,1.234375 -0.75,1.234375 -0.28125,0 -0.296875,-0.265625 -0.296875,-0.453125 0,-0.21875 0.015625,-0.3125 0.125,-0.75 C 3.890625,-1.71875 3.90625,-1.828125 4,-2.203125 L 4.359375,-3.59375 c 0.0625,-0.28125 0.0625,-0.296875 0.0625,-0.34375 0,-0.171875 -0.109375,-0.265625 -0.28125,-0.265625 -0.25,0 -0.390625,0.21875 -0.421875,0.4375 z M 3.078125,-1.1875 C 3.015625,-1 3.015625,-0.984375 2.875,-0.8125 2.4375,-0.265625 2.03125,-0.109375 1.75,-0.109375 c -0.5,0 -0.640625,-0.546875 -0.640625,-0.9375 0,-0.5 0.3125,-1.71875 0.546875,-2.1875 0.3125,-0.578125 0.75,-0.953125 1.15625,-0.953125 0.640625,0 0.78125,0.8125 0.78125,0.875 0,0.0625 -0.015625,0.125 -0.03125,0.171875 z m 0,0"
         id="id-261e814b-3ec7-4380-820f-1cbddb2ff3df"
         style="fill:#353535;fill-opacity:1" />
    </g>
  </g>
</svg>
