<?xml version="1.0" encoding="UTF-8" standalone="no"?>
<!-- Created with Inkscape (http://www.inkscape.org/) -->

<svg
   width="239.99933mm"
   height="104.65231mm"
   viewBox="0 0 239.99933 104.65231"
   version="1.1"
   id="svg1"
   xml:space="preserve"
   inkscape:version="1.4 (e7c3feb1, 2024-10-09)"
   sodipodi:docname="1k_modif.svg"
   inkscape:export-filename="1k_modif.png"
   inkscape:export-xdpi="300"
   inkscape:export-ydpi="300"
   xmlns:inkscape="http://www.inkscape.org/namespaces/inkscape"
   xmlns:sodipodi="http://sodipodi.sourceforge.net/DTD/sodipodi-0.dtd"
   xmlns="http://www.w3.org/2000/svg"
   xmlns:svg="http://www.w3.org/2000/svg"
   xmlns:ns4="http://www.iki.fi/pav/software/textext/"><sodipodi:namedview
     id="namedview1"
     pagecolor="#ffffff"
     bordercolor="#000000"
     borderopacity="0.25"
     inkscape:showpageshadow="2"
     inkscape:pageopacity="0.0"
     inkscape:pagecheckerboard="0"
     inkscape:deskcolor="#d1d1d1"
     inkscape:document-units="mm"
     inkscape:zoom="1.971397"
     inkscape:cx="602.61834"
     inkscape:cy="258.19254"
     inkscape:window-width="2560"
     inkscape:window-height="1387"
     inkscape:window-x="0"
     inkscape:window-y="25"
     inkscape:window-maximized="0"
     inkscape:current-layer="g1"><inkscape:page
       x="0"
       y="0"
       width="239.99933"
       height="104.65231"
       id="page1"
       margin="0"
       bleed="0" /></sodipodi:namedview><defs
     id="defs1"><clipPath
       clipPathUnits="userSpaceOnUse"
       id="clipPath19"><path
         d="M 57.6,38.016 H 414.72 V 304.128 H 57.6 Z"
         id="path19" /></clipPath><clipPath
       clipPathUnits="userSpaceOnUse"
       id="clipPath21"><path
         d="M 57.6,38.016 H 414.72 V 304.128 H 57.6 Z"
         id="path21" /></clipPath><clipPath
       clipPathUnits="userSpaceOnUse"
       id="clipPath23"><path
         d="M 57.6,38.016 H 414.72 V 304.128 H 57.6 Z"
         id="path23" /></clipPath><clipPath
       clipPathUnits="userSpaceOnUse"
       id="clipPath25"><path
         d="M 57.6,38.016 H 414.72 V 304.128 H 57.6 Z"
         id="path25" /></clipPath><clipPath
       clipPathUnits="userSpaceOnUse"
       id="clipPath27"><path
         d="M 57.6,38.016 H 414.72 V 304.128 H 57.6 Z"
         id="path27" /></clipPath><clipPath
       clipPathUnits="userSpaceOnUse"
       id="clipPath29"><path
         d="M 57.6,38.016 H 414.72 V 304.128 H 57.6 Z"
         id="path29" /></clipPath><clipPath
       clipPathUnits="userSpaceOnUse"
       id="clipPath31"><path
         d="M 57.6,38.016 H 414.72 V 304.128 H 57.6 Z"
         id="path31" /></clipPath></defs><g
     inkscape:label="Layer 1"
     inkscape:groupmode="layer"
     id="layer1"
     transform="translate(-7.9262266,-19.981303)" /><g
     id="g1"
     inkscape:groupmode="layer"
     inkscape:label="1"
     transform="matrix(0.264583,0,0,0.264583,212.07348,-19.981301)"><path
       id="path3"
       d="m -729.96697,430.8693 v 4.66666"
       style="fill:#000000;fill-opacity:1;fill-rule:nonzero;stroke:#000000;stroke-width:1.06667;stroke-linecap:butt;stroke-linejoin:round;stroke-miterlimit:10;stroke-dasharray:none;stroke-opacity:1" /><text
       id="text3"
       xml:space="preserve"
       x="-734.20654"
       y="450.32764"
       style="font-size:16px;stroke-width:1.33333"><tspan
         id="tspan3"
         style="font-variant:normal;font-weight:normal;font-size:13.3333px;font-family:DejaVuSans;writing-mode:lr-tb;fill:#000000;fill-opacity:1;fill-rule:nonzero;stroke:none;stroke-width:1.33333"
         x="-734.20654"
         y="450.32764">0</tspan></text><path
       id="path4"
       d="m -650.60697,430.8693 v 4.66666"
       style="fill:#000000;fill-opacity:1;fill-rule:nonzero;stroke:#000000;stroke-width:1.06667;stroke-linecap:butt;stroke-linejoin:round;stroke-miterlimit:10;stroke-dasharray:none;stroke-opacity:1" /><text
       id="text4"
       xml:space="preserve"
       x="-654.84656"
       y="450.32764"
       style="font-size:16px;stroke-width:1.33333"><tspan
         id="tspan4"
         style="font-variant:normal;font-weight:normal;font-size:13.3333px;font-family:DejaVuSans;writing-mode:lr-tb;fill:#000000;fill-opacity:1;fill-rule:nonzero;stroke:none;stroke-width:1.33333"
         x="-654.84656"
         y="450.32764">1</tspan></text><path
       id="path5"
       d="m -571.24697,430.8693 v 4.66666"
       style="fill:#000000;fill-opacity:1;fill-rule:nonzero;stroke:#000000;stroke-width:1.06667;stroke-linecap:butt;stroke-linejoin:round;stroke-miterlimit:10;stroke-dasharray:none;stroke-opacity:1" /><text
       id="text5"
       xml:space="preserve"
       x="-575.48657"
       y="450.32764"
       style="font-size:16px;stroke-width:1.33333"><tspan
         id="tspan5"
         style="font-variant:normal;font-weight:normal;font-size:13.3333px;font-family:DejaVuSans;writing-mode:lr-tb;fill:#000000;fill-opacity:1;fill-rule:nonzero;stroke:none;stroke-width:1.33333"
         x="-575.48657"
         y="450.32764">2</tspan></text><path
       id="path6"
       d="m -491.88697,430.8693 v 4.66666"
       style="fill:#000000;fill-opacity:1;fill-rule:nonzero;stroke:#000000;stroke-width:1.06667;stroke-linecap:butt;stroke-linejoin:round;stroke-miterlimit:10;stroke-dasharray:none;stroke-opacity:1" /><text
       id="text6"
       xml:space="preserve"
       x="-496.12656"
       y="450.32764"
       style="font-size:16px;stroke-width:1.33333"><tspan
         id="tspan6"
         style="font-variant:normal;font-weight:normal;font-size:13.3333px;font-family:DejaVuSans;writing-mode:lr-tb;fill:#000000;fill-opacity:1;fill-rule:nonzero;stroke:none;stroke-width:1.33333"
         x="-496.12656"
         y="450.32764">3</tspan></text><path
       id="path7"
       d="m -412.52698,430.8693 v 4.66666"
       style="fill:#000000;fill-opacity:1;fill-rule:nonzero;stroke:#000000;stroke-width:1.06667;stroke-linecap:butt;stroke-linejoin:round;stroke-miterlimit:10;stroke-dasharray:none;stroke-opacity:1" /><text
       id="text7"
       xml:space="preserve"
       x="-416.76654"
       y="450.32764"
       style="font-size:16px;stroke-width:1.33333"><tspan
         id="tspan7"
         style="font-variant:normal;font-weight:normal;font-size:13.3333px;font-family:DejaVuSans;writing-mode:lr-tb;fill:#000000;fill-opacity:1;fill-rule:nonzero;stroke:none;stroke-width:1.33333"
         x="-416.76654"
         y="450.32764">4</tspan></text><path
       id="path8"
       d="m -333.16698,430.8693 v 4.66666"
       style="fill:#000000;fill-opacity:1;fill-rule:nonzero;stroke:#000000;stroke-width:1.06667;stroke-linecap:butt;stroke-linejoin:round;stroke-miterlimit:10;stroke-dasharray:none;stroke-opacity:1" /><text
       id="text8"
       xml:space="preserve"
       x="-337.40656"
       y="450.32764"
       style="font-size:16px;stroke-width:1.33333"><tspan
         id="tspan8"
         style="font-variant:normal;font-weight:normal;font-size:13.3333px;font-family:DejaVuSans;writing-mode:lr-tb;fill:#000000;fill-opacity:1;fill-rule:nonzero;stroke:none;stroke-width:1.33333"
         x="-337.40656"
         y="450.32764">5</tspan></text><path
       id="path9"
       d="m -253.80698,430.8693 v 4.66666"
       style="fill:#000000;fill-opacity:1;fill-rule:nonzero;stroke:#000000;stroke-width:1.06667;stroke-linecap:butt;stroke-linejoin:round;stroke-miterlimit:10;stroke-dasharray:none;stroke-opacity:1" /><text
       id="text9"
       xml:space="preserve"
       x="-258.04654"
       y="450.32764"
       style="font-size:16px;stroke-width:1.33333"><tspan
         id="tspan9"
         style="font-variant:normal;font-weight:normal;font-size:13.3333px;font-family:DejaVuSans;writing-mode:lr-tb;fill:#000000;fill-opacity:1;fill-rule:nonzero;stroke:none;stroke-width:1.33333"
         x="-258.04654"
         y="450.32764">6</tspan></text><path
       id="path10"
       d="m -729.96697,414.9802 h -4.66667"
       style="fill:#000000;fill-opacity:1;fill-rule:nonzero;stroke:#000000;stroke-width:1.06667;stroke-linecap:butt;stroke-linejoin:round;stroke-miterlimit:10;stroke-dasharray:none;stroke-opacity:1" /><text
       id="text11"
       xml:space="preserve"
       x="-760.50861"
       y="420.04269"
       style="font-size:16px;stroke-width:1.33333"><tspan
         id="tspan11"
         style="font-variant:normal;font-weight:normal;font-size:13.3333px;font-family:DejaVuSans;writing-mode:lr-tb;fill:#000000;fill-opacity:1;fill-rule:nonzero;stroke:none;stroke-width:1.33333"
         x="-760.50861"
         y="420.04269">0.0</tspan></text><path
       id="path11"
       d="m -729.96697,366.54083 h -4.66667"
       style="fill:#000000;fill-opacity:1;fill-rule:nonzero;stroke:#000000;stroke-width:1.06667;stroke-linecap:butt;stroke-linejoin:round;stroke-miterlimit:10;stroke-dasharray:none;stroke-opacity:1" /><text
       id="text12"
       xml:space="preserve"
       x="-760.50861"
       y="371.60333"
       style="font-size:16px;stroke-width:1.33333"><tspan
         id="tspan12"
         style="font-variant:normal;font-weight:normal;font-size:13.3333px;font-family:DejaVuSans;writing-mode:lr-tb;fill:#000000;fill-opacity:1;fill-rule:nonzero;stroke:none;stroke-width:1.33333"
         x="-760.50861"
         y="371.60333">0.1</tspan></text><path
       id="path12"
       d="m -729.96697,318.10145 h -4.66667"
       style="fill:#000000;fill-opacity:1;fill-rule:nonzero;stroke:#000000;stroke-width:1.06667;stroke-linecap:butt;stroke-linejoin:round;stroke-miterlimit:10;stroke-dasharray:none;stroke-opacity:1" /><text
       id="text13"
       xml:space="preserve"
       x="-760.50861"
       y="323.16394"
       style="font-size:16px;stroke-width:1.33333"><tspan
         id="tspan13"
         style="font-variant:normal;font-weight:normal;font-size:13.3333px;font-family:DejaVuSans;writing-mode:lr-tb;fill:#000000;fill-opacity:1;fill-rule:nonzero;stroke:none;stroke-width:1.33333"
         x="-760.50861"
         y="323.16394">0.2</tspan></text><path
       id="path13"
       d="m -729.96697,269.66208 h -4.66667"
       style="fill:#000000;fill-opacity:1;fill-rule:nonzero;stroke:#000000;stroke-width:1.06667;stroke-linecap:butt;stroke-linejoin:round;stroke-miterlimit:10;stroke-dasharray:none;stroke-opacity:1" /><text
       id="text14"
       xml:space="preserve"
       x="-760.50861"
       y="274.72458"
       style="font-size:16px;stroke-width:1.33333"><tspan
         id="tspan14"
         style="font-variant:normal;font-weight:normal;font-size:13.3333px;font-family:DejaVuSans;writing-mode:lr-tb;fill:#000000;fill-opacity:1;fill-rule:nonzero;stroke:none;stroke-width:1.33333"
         x="-760.50861"
         y="274.72458">0.3</tspan></text><path
       id="path14"
       d="m -729.96697,221.2227 h -4.66667"
       style="fill:#000000;fill-opacity:1;fill-rule:nonzero;stroke:#000000;stroke-width:1.06667;stroke-linecap:butt;stroke-linejoin:round;stroke-miterlimit:10;stroke-dasharray:none;stroke-opacity:1" /><text
       id="text15"
       xml:space="preserve"
       x="-760.50861"
       y="226.2852"
       style="font-size:16px;stroke-width:1.33333"><tspan
         id="tspan15"
         style="font-variant:normal;font-weight:normal;font-size:13.3333px;font-family:DejaVuSans;writing-mode:lr-tb;fill:#000000;fill-opacity:1;fill-rule:nonzero;stroke:none;stroke-width:1.33333"
         x="-760.50861"
         y="226.2852">0.4</tspan></text><path
       id="path15"
       d="m -729.96697,172.78333 h -4.66667"
       style="fill:#000000;fill-opacity:1;fill-rule:nonzero;stroke:#000000;stroke-width:1.06667;stroke-linecap:butt;stroke-linejoin:round;stroke-miterlimit:10;stroke-dasharray:none;stroke-opacity:1" /><text
       id="text16"
       xml:space="preserve"
       x="-760.50861"
       y="177.84583"
       style="font-size:16px;stroke-width:1.33333"><tspan
         id="tspan16"
         style="font-variant:normal;font-weight:normal;font-size:13.3333px;font-family:DejaVuSans;writing-mode:lr-tb;fill:#000000;fill-opacity:1;fill-rule:nonzero;stroke:none;stroke-width:1.33333"
         x="-760.50861"
         y="177.84583">0.5</tspan></text><path
       id="path16"
       d="m -729.96697,124.34396 h -4.66667"
       style="fill:#000000;fill-opacity:1;fill-rule:nonzero;stroke:#000000;stroke-width:1.06667;stroke-linecap:butt;stroke-linejoin:round;stroke-miterlimit:10;stroke-dasharray:none;stroke-opacity:1" /><text
       id="text17"
       xml:space="preserve"
       x="-760.50861"
       y="129.40645"
       style="font-size:16px;stroke-width:1.33333"><tspan
         id="tspan17"
         style="font-variant:normal;font-weight:normal;font-size:13.3333px;font-family:DejaVuSans;writing-mode:lr-tb;fill:#000000;fill-opacity:1;fill-rule:nonzero;stroke:none;stroke-width:1.33333"
         x="-760.50861"
         y="129.40645">0.6</tspan></text><path
       id="path18"
       d="m 57.6,53.565778 7.14955,0.967793 6.434594,1.084215 6.077117,1.250865 5.362162,1.322876 5.004685,1.452313 4.647207,1.565174 4.647208,1.800212 4.289727,1.898005 3.93226,1.965657 3.93225,2.205235 3.93225,2.467279 3.93225,2.751385 3.57478,2.76603 3.57477,3.034715 3.57478,3.319103 3.57477,3.61892 3.57477,3.929004 3.57478,4.247341 3.57477,4.579953 3.57478,4.920247 3.93225,5.8061 3.93225,6.21033 4.28973,7.21399 4.64721,8.28926 5.00469,9.40319 6.07711,11.9271 9.65189,19.53021 9.6519,19.40022 6.07711,11.70738 5.00469,9.17681 4.64721,8.06363 4.28972,7.00345 3.93226,6.02023 3.93225,5.62004 3.93225,5.20975 3.57478,4.37751 3.57477,4.04494 3.57478,3.73048 3.57477,3.42781 3.57478,3.13787 3.57477,2.86176 3.57477,2.60051 3.93226,2.57786 3.93225,2.30375 3.93225,2.05387 4.28973,1.98595 4.64721,1.8909 4.64721,1.65083 5.00468,1.5345 5.36216,1.39426 5.71964,1.23937 6.07712,1.08134 6.79207,0.98092 8.22198,0.95472 8.57946,0.77251 9.29442,0.60939 10.72432,0.47123 16.44397,0.46463 19.30378,0.35462 21.44865,0.1539 16.80144,0.0603 v 0"
       style="fill:none;stroke:#1f77b4;stroke-width:1.5;stroke-linecap:square;stroke-linejoin:round;stroke-miterlimit:10;stroke-dasharray:none;stroke-opacity:1"
       transform="matrix(1.3333333,0,0,-1.3333333,-806.76697,481.5573)"
       clip-path="url(#clipPath19)" /><path
       id="path20"
       d="m 57.6,53.565778 14.656577,0.988477 13.226666,1.113477 11.796757,1.209123 11.0818,1.356549 10.36685,1.494563 9.65189,1.615367 9.29441,1.783645 8.57946,1.873012 8.22199,2.022593 7.8645,2.162042 7.50703,2.286495 7.50702,2.517473 7.50703,2.760626 7.14955,2.865432 7.14955,3.104846 7.14955,3.351649 7.14955,3.600884 7.14955,3.851868 7.14955,4.100745 7.50703,4.566126 7.8645,5.055 8.22198,5.55787 8.93694,6.319 10.00937,7.35529 13.22667,10.0142 24.30846,18.447 10.72433,7.84091 9.29441,6.52819 8.57946,5.75356 7.86451,5.01219 7.50702,4.52956 7.50703,4.26599 7.14955,3.80881 7.14955,3.55636 7.14955,3.30324 7.14955,3.05329 7.14955,2.81037 7.14955,2.57826 7.50702,2.47129 5.00469,1.52004 v 0"
       style="fill:none;stroke:#ff7f0e;stroke-width:1.5;stroke-linecap:square;stroke-linejoin:round;stroke-miterlimit:10;stroke-dasharray:none;stroke-opacity:1"
       transform="matrix(1.3333333,0,0,-1.3333333,-806.76697,481.5573)"
       clip-path="url(#clipPath21)" /><path
       id="path22"
       d="m 57.6,53.565778 30.385586,-0.824893 34.675314,-0.713573 40.75243,-0.610277 48.61694,-0.498733 61.8436,-0.399732 81.14739,-0.289411 59.69874,-0.116922 v 0"
       style="fill:none;stroke:#2ca02c;stroke-width:1.5;stroke-linecap:square;stroke-linejoin:round;stroke-miterlimit:10;stroke-dasharray:none;stroke-opacity:1"
       transform="matrix(1.3333333,0,0,-1.3333333,-806.76697,481.5573)"
       clip-path="url(#clipPath23)" /><path
       id="path24"
       d="m 57.6,53.565778 7.14955,0.967813 6.434594,1.084418 6.077117,1.251093 5.362162,1.322756 5.004685,1.451881 4.647207,1.564821 4.647208,1.802803 4.289727,1.902404 4.28973,2.158424 3.93225,2.227512 3.93226,2.488871 3.93225,2.773364 3.57477,2.787651 3.57478,3.058947 3.57477,3.346488 3.57478,3.64896 3.57477,3.96432 3.57478,4.290055 3.57477,4.622861 3.93225,5.47295 3.93226,5.87656 3.93225,6.2696 4.28973,7.26491 4.64721,8.32815 5.00468,9.42757 6.07712,11.93968 9.65189,19.53957 9.29441,18.6631 6.07712,11.69723 5.00469,9.15651 4.6472,8.03094 4.28973,6.96186 3.93225,5.97554 3.93226,5.5738 3.93225,5.16754 3.57477,4.34735 3.57478,4.02013 3.57477,3.70276 3.57478,3.3979 3.57477,3.10767 3.57478,2.83346 3.93225,2.82034 3.93225,2.53217 3.93226,2.26717 3.93225,2.02488 4.28973,1.95833 4.28973,1.72297 4.6472,1.63012 5.00469,1.51332 5.36216,1.37947 5.71964,1.23534 6.07712,1.08745 6.79207,0.98809 7.50703,0.86598 8.57946,0.76112 10.00936,0.65437 11.79676,0.53834 14.65658,0.43213 18.9463,0.32074 26.81082,0.21442 12.15423,0.0492 v 0"
       style="fill:none;stroke:#353535;stroke-width:1.5;stroke-linecap:butt;stroke-linejoin:round;stroke-miterlimit:10;stroke-dasharray:5.55, 2.4;stroke-dashoffset:0;stroke-opacity:1"
       transform="matrix(1.3333333,0,0,-1.3333333,-806.76697,481.5573)"
       clip-path="url(#clipPath25)" /><path
       id="path26"
       d="m 57.6,53.565778 7.14955,0.967813 6.434594,1.084418 6.077117,1.251093 5.362162,1.322756 5.004685,1.451881 4.647207,1.564821 4.647208,1.802803 4.289727,1.902404 4.28973,2.158424 3.93225,2.227512 3.93226,2.488871 3.93225,2.773364 3.57477,2.787651 3.57478,3.058947 3.57477,3.346488 3.57478,3.64896 3.57477,3.96432 3.57478,4.290055 3.57477,4.622861 3.93225,5.47295 3.93226,5.87656 3.93225,6.2696 4.28973,7.26491 4.64721,8.32815 5.00468,9.42757 6.07712,11.93968 9.65189,19.53957 9.29441,18.6631 6.07712,11.69723 5.00469,9.15651 4.6472,8.03094 4.28973,6.96186 3.93225,5.97554 3.93226,5.5738 3.93225,5.16754 3.57477,4.34735 3.57478,4.02013 3.57477,3.70276 3.57478,3.3979 3.57477,3.10767 3.57478,2.83346 3.93225,2.82034 3.93225,2.53217 3.93226,2.26717 3.93225,2.02488 4.28973,1.95833 4.28973,1.72297 4.6472,1.63012 5.00469,1.51332 5.36216,1.37947 5.71964,1.23534 6.07712,1.08745 6.79207,0.98809 7.50703,0.86598 8.57946,0.76112 10.00936,0.65437 11.79676,0.53834 14.65658,0.43213 18.9463,0.32074 26.81082,0.21442 12.15423,0.0492 v 0"
       style="fill:none;stroke:#353535;stroke-width:1.5;stroke-linecap:butt;stroke-linejoin:round;stroke-miterlimit:10;stroke-dasharray:5.55, 2.4;stroke-dashoffset:0;stroke-opacity:1"
       transform="matrix(1.3333333,0,0,-1.3333333,-806.76697,481.5573)"
       clip-path="url(#clipPath27)" /><path
       id="path28"
       d="m 57.6,53.565778 14.656577,0.988569 13.226666,1.113748 11.796757,1.209136 11.0818,1.356207 10.36685,1.494143 9.65189,1.616057 8.93694,1.715063 8.57946,1.867204 8.22198,2.013053 7.8645,2.148943 7.86451,2.384982 7.50702,2.51212 7.14955,2.619092 7.14955,2.850874 7.14955,3.091456 7.14955,3.33869 7.14955,3.589784 7.14955,3.841488 7.14955,4.090016 7.50703,4.553817 7.8645,5.04042 8.22198,5.53999 8.93694,6.29552 10.36685,7.58918 13.58414,10.24629 26.81081,20.27813 10.36685,7.52235 8.93694,6.22009 8.22198,5.45868 7.8645,4.95435 7.50703,4.46619 7.14955,4.00334 7.14955,3.75324 7.14955,3.50134 7.14955,3.25126 7.14955,3.00608 7.14955,2.76835 7.50703,2.66132 7.50702,2.42244 3.2173,0.96852 v 0"
       style="fill:none;stroke:#353535;stroke-width:1.5;stroke-linecap:butt;stroke-linejoin:round;stroke-miterlimit:10;stroke-dasharray:5.55, 2.4;stroke-dashoffset:0;stroke-opacity:1"
       transform="matrix(1.3333333,0,0,-1.3333333,-806.76697,481.5573)"
       clip-path="url(#clipPath29)" /><path
       id="path30"
       d="m 57.6,53.565778 30.385586,-0.824762 34.675314,-0.713727 40.75243,-0.609657 48.97442,-0.50216 61.48612,-0.397041 81.50487,-0.290556 L 414.72,50.112 v 0"
       style="fill:none;stroke:#353535;stroke-width:1.5;stroke-linecap:butt;stroke-linejoin:round;stroke-miterlimit:10;stroke-dasharray:5.55, 2.4;stroke-dashoffset:0;stroke-opacity:1"
       transform="matrix(1.3333333,0,0,-1.3333333,-806.76697,481.5573)"
       clip-path="url(#clipPath31)" /><path
       id="path32"
       d="M -729.96697,430.8693 V 76.053307"
       style="fill:none;stroke:#000000;stroke-width:1.06667;stroke-linecap:square;stroke-linejoin:miter;stroke-miterlimit:10;stroke-dasharray:none;stroke-opacity:1" /><path
       id="path33"
       d="M -253.80698,430.8693 V 76.053307"
       style="fill:none;stroke:#000000;stroke-width:1.06667;stroke-linecap:square;stroke-linejoin:miter;stroke-miterlimit:10;stroke-dasharray:none;stroke-opacity:1" /><path
       id="path34"
       d="m -729.96697,430.8693 h 476.15999"
       style="fill:none;stroke:#000000;stroke-width:1.06667;stroke-linecap:square;stroke-linejoin:miter;stroke-miterlimit:10;stroke-dasharray:none;stroke-opacity:1" /><path
       id="path35"
       d="m -729.96697,76.053307 h 476.15999"
       style="fill:none;stroke:#000000;stroke-width:1.06667;stroke-linecap:square;stroke-linejoin:miter;stroke-miterlimit:10;stroke-dasharray:none;stroke-opacity:1" /><path
       id="path37"
       d="m -216.64679,187.8558 h 13.33333 13.33334"
       style="fill:none;stroke:#1f77b4;stroke-width:2;stroke-linecap:square;stroke-linejoin:round;stroke-miterlimit:10;stroke-dasharray:none;stroke-opacity:1" /><text
       id="text37"
       xml:space="preserve"
       x="-170.4664"
       y="192.66829"
       style="font-style:normal;font-variant:normal;font-weight:normal;font-stretch:normal;font-size:16px;font-family:'Open Sans';-inkscape-font-specification:'Open Sans';stroke-width:1.33333"><tspan
         id="tspan37"
         style="font-style:normal;font-variant:normal;font-weight:normal;font-stretch:normal;font-size:16px;font-family:'Open Sans';-inkscape-font-specification:'Open Sans';writing-mode:lr-tb;fill:#000000;fill-opacity:1;fill-rule:nonzero;stroke:none;stroke-width:1.33333"
         x="-170.4664"
         y="192.66829">Action de masse                     </tspan></text><path
       id="path40"
       d="m -216.64679,231.35582 h 13.33333 13.33334"
       style="fill:none;stroke:#ff7f0e;stroke-width:2;stroke-linecap:square;stroke-linejoin:round;stroke-miterlimit:10;stroke-dasharray:none;stroke-opacity:1" /><path
       id="path44"
       d="m -216.64679,274.85585 h 13.33333 13.33334"
       style="fill:none;stroke:#2ca02c;stroke-width:2;stroke-linecap:square;stroke-linejoin:round;stroke-miterlimit:10;stroke-dasharray:none;stroke-opacity:1" /><path
       id="path48"
       d="m -216.64679,318.35587 h 13.33333 13.33334"
       style="fill:none;stroke:#353535;stroke-width:2;stroke-linecap:butt;stroke-linejoin:round;stroke-miterlimit:10;stroke-dasharray:7.4, 3.2;stroke-dashoffset:0;stroke-opacity:1" /><text
       id="text48"
       xml:space="preserve"
       x="-171.44296"
       y="322.55899"
       style="font-style:normal;font-variant:normal;font-weight:normal;font-stretch:normal;font-size:16px;font-family:'Open Sans';-inkscape-font-specification:'Open Sans';stroke-width:1.33333"><tspan
         id="tspan49"
         style="font-style:normal;font-variant:normal;font-weight:normal;font-stretch:normal;font-size:16px;font-family:'Open Sans';-inkscape-font-specification:'Open Sans';writing-mode:lr-tb;fill:#000000;fill-opacity:1;fill-rule:nonzero;stroke:none;stroke-width:1.33333"
         x="-171.44296"
         dx="0 0 0 0 0 0 0 0 0 0 0 0 0 0 0 0 0 0 0 0 0 -0.29166666"
         y="322.55899">Champ moyen avec degré homogène</tspan></text><text
       id="text37-3"
       xml:space="preserve"
       x="-170.4664"
       y="236.16832"
       style="font-style:normal;font-variant:normal;font-weight:normal;font-stretch:normal;font-size:16px;font-family:'Open Sans';-inkscape-font-specification:'Open Sans';stroke-width:1.33333"><tspan
         id="tspan37-6"
         style="font-style:normal;font-variant:normal;font-weight:normal;font-stretch:normal;font-size:16px;font-family:'Open Sans';-inkscape-font-specification:'Open Sans';writing-mode:lr-tb;fill:#000000;fill-opacity:1;fill-rule:nonzero;stroke:none;stroke-width:1.33333"
         x="-170.4664"
         y="236.16832">Action de masse</tspan></text><text
       id="text37-0"
       xml:space="preserve"
       x="-170.4664"
       y="279.66833"
       style="font-style:normal;font-variant:normal;font-weight:normal;font-stretch:normal;font-size:16px;font-family:'Open Sans';-inkscape-font-specification:'Open Sans';stroke-width:1.33333"><tspan
         id="tspan37-4"
         style="font-style:normal;font-variant:normal;font-weight:normal;font-stretch:normal;font-size:16px;font-family:'Open Sans';-inkscape-font-specification:'Open Sans';writing-mode:lr-tb;fill:#000000;fill-opacity:1;fill-rule:nonzero;stroke:none;stroke-width:1.33333"
         x="-170.4664"
         y="279.66833">Action de masse</tspan></text><g
       transform="matrix(2,0,0,2,-801.53833,247.75568)"
       ns4:version="1.10.2"
       ns4:texconverter="pdflatex"
       ns4:pdfconverter="inkscape"
       ns4:text="$i(\\tau)$"
       ns4:preamble="/Users/benja/Library/Application Support/org.inkscape.Inkscape/config/inkscape/extensions/textext/default_packages.tex"
       ns4:scale="1.5"
       ns4:alignment="middle center"
       ns4:stroke-to-path="0"
       ns4:inkscapeversion="1.4"
       ns4:jacobian_sqrt="2.0"
       id="g23"
       style="fill:#353535;fill-opacity:1"><defs
   id="id-16ad4cd5-c7fd-4815-8153-232c4b0a5db9">
    <g
   id="id-a8ab38b3-db6b-4f92-b431-527d152a7e86">
      <g
   id="id-4649b98e-6739-4818-a8a7-a8045c68d31d">
        <path
   d="m 2.828125,-6.234375 c 0,-0.203125 -0.140625,-0.359375 -0.359375,-0.359375 -0.28125,0 -0.546875,0.265625 -0.546875,0.53125 0,0.1875 0.140625,0.359375 0.375,0.359375 0.234375,0 0.53125,-0.234375 0.53125,-0.53125 z m -0.75,3.75 c 0.109375,-0.28125 0.109375,-0.3125 0.21875,-0.578125 0.078125,-0.203125 0.125,-0.34375 0.125,-0.53125 0,-0.4375 -0.3125,-0.8125 -0.8125,-0.8125 -0.9375,0 -1.3125,1.453125 -1.3125,1.53125 0,0.109375 0.09375,0.109375 0.109375,0.109375 0.109375,0 0.109375,-0.03125 0.15625,-0.1875 0.28125,-0.9375 0.671875,-1.234375 1.015625,-1.234375 0.078125,0 0.25,0 0.25,0.3125 0,0.21875 -0.078125,0.421875 -0.109375,0.53125 -0.078125,0.25 -0.53125,1.40625 -0.6875,1.84375 -0.109375,0.25 -0.234375,0.578125 -0.234375,0.796875 0,0.46875 0.34375,0.8125 0.8125,0.8125 0.9375,0 1.3125,-1.4375 1.3125,-1.53125 0,-0.109375 -0.09375,-0.109375 -0.125,-0.109375 -0.09375,0 -0.09375,0.03125 -0.140625,0.1875 -0.1875,0.625 -0.515625,1.234375 -1.015625,1.234375 -0.171875,0 -0.25,-0.09375 -0.25,-0.328125 0,-0.25 0.0625,-0.390625 0.296875,-1 z m 0,0"
   id="id-7d2e9a33-6319-4dc9-b845-1f7478240271" />
      </g>
      <g
   id="id-169c75a4-89db-4573-87a2-c7594f28c907">
        <path
   d="m 2.9375,-3.71875 h 1.671875 c 0.125,0 0.484375,0 0.484375,-0.34375 0,-0.234375 -0.203125,-0.234375 -0.40625,-0.234375 H 1.90625 c -0.203125,0 -0.59375,0 -1.03125,0.46875 -0.328125,0.359375 -0.609375,0.84375 -0.609375,0.890625 0,0.015625 0,0.109375 0.125,0.109375 0.078125,0 0.09375,-0.046875 0.15625,-0.125 C 1.03125,-3.71875 1.609375,-3.71875 1.8125,-3.71875 h 0.828125 l -0.96875,3.203125 C 1.625,-0.40625 1.5625,-0.1875 1.5625,-0.15625 c 0,0.109375 0.078125,0.28125 0.296875,0.28125 0.328125,0 0.375,-0.28125 0.40625,-0.4375 z m 0,0"
   id="id-fed0045b-bcee-4990-ab08-404cccf6086b" />
      </g>
      <g
   id="id-84ee18ab-bf2f-4c4a-a0d2-b21b9ac35725">
        <path
   d="m 3.296875,2.390625 c 0,-0.03125 0,-0.046875 -0.171875,-0.21875 C 1.890625,0.921875 1.5625,-0.96875 1.5625,-2.5 c 0,-1.734375 0.375,-3.46875 1.609375,-4.703125 0.125,-0.125 0.125,-0.140625 0.125,-0.171875 0,-0.078125 -0.03125,-0.109375 -0.09375,-0.109375 -0.109375,0 -1,0.6875 -1.59375,1.953125 -0.5,1.09375 -0.625,2.203125 -0.625,3.03125 0,0.78125 0.109375,1.984375 0.65625,3.125 C 2.25,1.84375 3.09375,2.5 3.203125,2.5 c 0.0625,0 0.09375,-0.03125 0.09375,-0.109375 z m 0,0"
   id="id-b68414bc-8350-4d6c-8d1f-2a8ddc532aa8" />
      </g>
      <g
   id="id-cf0c52f5-b843-4b53-ad27-a49574bcaba9">
        <path
   d="m 2.875,-2.5 c 0,-0.765625 -0.109375,-1.96875 -0.65625,-3.109375 -0.59375,-1.21875 -1.453125,-1.875 -1.546875,-1.875 -0.0625,0 -0.109375,0.046875 -0.109375,0.109375 0,0.03125 0,0.046875 0.1875,0.234375 0.984375,0.984375 1.546875,2.5625 1.546875,4.640625 0,1.71875 -0.359375,3.46875 -1.59375,4.71875 C 0.5625,2.34375 0.5625,2.359375 0.5625,2.390625 0.5625,2.453125 0.609375,2.5 0.671875,2.5 0.765625,2.5 1.671875,1.8125 2.25,0.546875 2.765625,-0.546875 2.875,-1.65625 2.875,-2.5 Z m 0,0"
   id="id-cd9b7895-c8b6-47d5-a52b-aa16b3528258" />
      </g>
    </g>
  </defs>
  <g
   fill="#000000"
   fill-opacity="1"
   id="id-b97281b8-b107-4f71-901f-6fe26e5856ca"
   transform="translate(-149.009,-127.281)"
   style="fill:#353535;fill-opacity:1">
    <g
   transform="translate(148.712,134.765)"
   id="g19"
   style="fill:#353535;fill-opacity:1"><path
   d="m 2.828125,-6.234375 c 0,-0.203125 -0.140625,-0.359375 -0.359375,-0.359375 -0.28125,0 -0.546875,0.265625 -0.546875,0.53125 0,0.1875 0.140625,0.359375 0.375,0.359375 0.234375,0 0.53125,-0.234375 0.53125,-0.53125 z m -0.75,3.75 c 0.109375,-0.28125 0.109375,-0.3125 0.21875,-0.578125 0.078125,-0.203125 0.125,-0.34375 0.125,-0.53125 0,-0.4375 -0.3125,-0.8125 -0.8125,-0.8125 -0.9375,0 -1.3125,1.453125 -1.3125,1.53125 0,0.109375 0.09375,0.109375 0.109375,0.109375 0.109375,0 0.109375,-0.03125 0.15625,-0.1875 0.28125,-0.9375 0.671875,-1.234375 1.015625,-1.234375 0.078125,0 0.25,0 0.25,0.3125 0,0.21875 -0.078125,0.421875 -0.109375,0.53125 -0.078125,0.25 -0.53125,1.40625 -0.6875,1.84375 -0.109375,0.25 -0.234375,0.578125 -0.234375,0.796875 0,0.46875 0.34375,0.8125 0.8125,0.8125 0.9375,0 1.3125,-1.4375 1.3125,-1.53125 0,-0.109375 -0.09375,-0.109375 -0.125,-0.109375 -0.09375,0 -0.09375,0.03125 -0.140625,0.1875 -0.1875,0.625 -0.515625,1.234375 -1.015625,1.234375 -0.171875,0 -0.25,-0.09375 -0.25,-0.328125 0,-0.25 0.0625,-0.390625 0.296875,-1 z m 0,0"
   id="id-a0b585de-0387-425f-be3c-ca1d3a4ab655"
   style="fill:#353535;fill-opacity:1" />
      </g></g>
  <g
   fill="#000000"
   fill-opacity="1"
   id="id-5cd2d9d9-9018-429b-892a-33e4bcc0074e"
   transform="translate(-149.009,-127.281)"
   style="fill:#353535;fill-opacity:1">
    <g
   transform="translate(152.145,134.765)"
   id="g20"
   style="fill:#353535;fill-opacity:1"><path
   d="m 3.296875,2.390625 c 0,-0.03125 0,-0.046875 -0.171875,-0.21875 C 1.890625,0.921875 1.5625,-0.96875 1.5625,-2.5 c 0,-1.734375 0.375,-3.46875 1.609375,-4.703125 0.125,-0.125 0.125,-0.140625 0.125,-0.171875 0,-0.078125 -0.03125,-0.109375 -0.09375,-0.109375 -0.109375,0 -1,0.6875 -1.59375,1.953125 -0.5,1.09375 -0.625,2.203125 -0.625,3.03125 0,0.78125 0.109375,1.984375 0.65625,3.125 C 2.25,1.84375 3.09375,2.5 3.203125,2.5 c 0.0625,0 0.09375,-0.03125 0.09375,-0.109375 z m 0,0"
   id="id-66d88cba-db84-4108-84c8-5e8fa676c15e"
   style="fill:#353535;fill-opacity:1" />
      </g></g>
  <g
   fill="#000000"
   fill-opacity="1"
   id="id-9f4fea30-15f7-411e-9d9c-46a1e61cf4a6"
   transform="translate(-149.009,-127.281)"
   style="fill:#353535;fill-opacity:1">
    <g
   transform="translate(156.019,134.765)"
   id="g21"
   style="fill:#353535;fill-opacity:1"><path
   d="m 2.9375,-3.71875 h 1.671875 c 0.125,0 0.484375,0 0.484375,-0.34375 0,-0.234375 -0.203125,-0.234375 -0.40625,-0.234375 H 1.90625 c -0.203125,0 -0.59375,0 -1.03125,0.46875 -0.328125,0.359375 -0.609375,0.84375 -0.609375,0.890625 0,0.015625 0,0.109375 0.125,0.109375 0.078125,0 0.09375,-0.046875 0.15625,-0.125 C 1.03125,-3.71875 1.609375,-3.71875 1.8125,-3.71875 h 0.828125 l -0.96875,3.203125 C 1.625,-0.40625 1.5625,-0.1875 1.5625,-0.15625 c 0,0.109375 0.078125,0.28125 0.296875,0.28125 0.328125,0 0.375,-0.28125 0.40625,-0.4375 z m 0,0"
   id="id-62fd461a-dee3-4f50-9c1e-26517c11611a"
   style="fill:#353535;fill-opacity:1" />
      </g></g>
  <g
   fill="#000000"
   fill-opacity="1"
   id="id-598b0a5f-944f-40bc-b5dd-2a6518f14d08"
   transform="translate(-149.009,-127.281)"
   style="fill:#353535;fill-opacity:1">
    <g
   transform="translate(161.502,134.765)"
   id="g22"
   style="fill:#353535;fill-opacity:1"><path
   d="m 2.875,-2.5 c 0,-0.765625 -0.109375,-1.96875 -0.65625,-3.109375 -0.59375,-1.21875 -1.453125,-1.875 -1.546875,-1.875 -0.0625,0 -0.109375,0.046875 -0.109375,0.109375 0,0.03125 0,0.046875 0.1875,0.234375 0.984375,0.984375 1.546875,2.5625 1.546875,4.640625 0,1.71875 -0.359375,3.46875 -1.59375,4.71875 C 0.5625,2.34375 0.5625,2.359375 0.5625,2.390625 0.5625,2.453125 0.609375,2.5 0.671875,2.5 0.765625,2.5 1.671875,1.8125 2.25,0.546875 2.765625,-0.546875 2.875,-1.65625 2.875,-2.5 Z m 0,0"
   id="id-6e48068c-63a7-4945-ad1a-0b257ec5a9a6"
   style="fill:#353535;fill-opacity:1" />
      </g></g>
</g><g
       transform="matrix(2,0,0,2,-496.05421,462.2128)"
       ns4:version="1.10.2"
       ns4:texconverter="pdflatex"
       ns4:pdfconverter="inkscape"
       ns4:text="$\\tau$"
       ns4:preamble="/Users/benja/Library/Application Support/org.inkscape.Inkscape/config/inkscape/extensions/textext/default_packages.tex"
       ns4:scale="1.5"
       ns4:alignment="middle center"
       ns4:stroke-to-path="0"
       ns4:inkscapeversion="1.4"
       ns4:jacobian_sqrt="2.0"
       id="g25"
       style="fill:#353535;fill-opacity:1"><defs
   id="id-99c2def9-6ad2-4096-90d7-335ac45863f5">
    <g
   id="id-a73ecbd3-dbfb-433a-ae38-dc74f243e69b">
      <g
   id="id-5eb828ef-2124-4eab-985b-2f2715803dad">
        <path
   d="m 2.9375,-3.71875 h 1.671875 c 0.125,0 0.484375,0 0.484375,-0.34375 0,-0.234375 -0.203125,-0.234375 -0.40625,-0.234375 H 1.90625 c -0.203125,0 -0.59375,0 -1.03125,0.46875 -0.328125,0.359375 -0.609375,0.84375 -0.609375,0.890625 0,0.015625 0,0.109375 0.125,0.109375 0.078125,0 0.09375,-0.046875 0.15625,-0.125 C 1.03125,-3.71875 1.609375,-3.71875 1.8125,-3.71875 h 0.828125 l -0.96875,3.203125 C 1.625,-0.40625 1.5625,-0.1875 1.5625,-0.15625 c 0,0.109375 0.078125,0.28125 0.296875,0.28125 0.328125,0 0.375,-0.28125 0.40625,-0.4375 z m 0,0"
   id="id-7b954c51-e85c-410b-be53-05355780c097" />
      </g>
    </g>
  </defs>
  <g
   fill="#000000"
   fill-opacity="1"
   id="id-306d6949-2cd1-4cbc-b9d5-77ac5792049a"
   transform="translate(-148.978,-130.468)"
   style="fill:#353535;fill-opacity:1">
    <g
   transform="translate(148.712,134.765)"
   id="g24"
   style="fill:#353535;fill-opacity:1"><path
   d="m 2.9375,-3.71875 h 1.671875 c 0.125,0 0.484375,0 0.484375,-0.34375 0,-0.234375 -0.203125,-0.234375 -0.40625,-0.234375 H 1.90625 c -0.203125,0 -0.59375,0 -1.03125,0.46875 -0.328125,0.359375 -0.609375,0.84375 -0.609375,0.890625 0,0.015625 0,0.109375 0.125,0.109375 0.078125,0 0.09375,-0.046875 0.15625,-0.125 C 1.03125,-3.71875 1.609375,-3.71875 1.8125,-3.71875 h 0.828125 l -0.96875,3.203125 C 1.625,-0.40625 1.5625,-0.1875 1.5625,-0.15625 c 0,0.109375 0.078125,0.28125 0.296875,0.28125 0.328125,0 0.375,-0.28125 0.40625,-0.4375 z m 0,0"
   id="id-b267d587-a643-4f3e-bc56-2273b12a802f"
   style="fill:#353535;fill-opacity:1" />
      </g></g>
</g><g
       transform="matrix(2,0,0,2,-39.821225,175.8975)"
       ns4:version="1.10.2"
       ns4:texconverter="pdflatex"
       ns4:pdfconverter="inkscape"
       ns4:text="$R_0^{AM} = 3$"
       ns4:preamble="/Users/benja/Library/Application Support/org.inkscape.Inkscape/config/inkscape/extensions/textext/default_packages.tex"
       ns4:scale="1.5"
       ns4:alignment="middle center"
       ns4:stroke-to-path="0"
       ns4:inkscapeversion="1.4"
       ns4:jacobian_sqrt="2.0"
       style="fill:#353535;fill-opacity:1;stroke-width:0"
       id="g18"><defs
   id="id-55fbddde-7b8d-4e9b-82ec-c0fe54969a91"
   style="fill:#353535;fill-opacity:1;stroke-width:0">
    <g
   id="id-5a5d7051-208c-4b4c-a3a3-c4e2dcb5622f"
   style="fill:#353535;fill-opacity:1;stroke-width:0">
      <g
   id="id-26844fb3-45c0-40f4-9d3f-2ee57a3a52be"
   style="fill:#353535;fill-opacity:1;stroke-width:0">
        <path
   d="m 3.734375,-6.125 c 0.0625,-0.234375 0.09375,-0.328125 0.28125,-0.359375 C 4.109375,-6.5 4.421875,-6.5 4.625,-6.5 c 0.703125,0 1.8125,0 1.8125,0.984375 0,0.34375 -0.15625,1.03125 -0.546875,1.421875 -0.265625,0.25 -0.78125,0.578125 -1.6875,0.578125 H 3.09375 Z m 1.4375,2.734375 c 1.015625,-0.21875 2.1875,-0.921875 2.1875,-1.921875 0,-0.859375 -0.890625,-1.5 -2.203125,-1.5 H 2.328125 c -0.203125,0 -0.296875,0 -0.296875,0.203125 C 2.03125,-6.5 2.125,-6.5 2.3125,-6.5 c 0.015625,0 0.203125,0 0.375,0.015625 0.1875,0.03125 0.265625,0.03125 0.265625,0.171875 0,0.03125 0,0.0625 -0.03125,0.1875 l -1.34375,5.34375 C 1.484375,-0.390625 1.46875,-0.3125 0.671875,-0.3125 0.5,-0.3125 0.40625,-0.3125 0.40625,-0.109375 0.40625,0 0.53125,0 0.546875,0 c 0.28125,0 0.984375,-0.03125 1.25,-0.03125 0.28125,0 1,0.03125 1.28125,0.03125 0.078125,0 0.1875,0 0.1875,-0.203125 0,-0.109375 -0.078125,-0.109375 -0.28125,-0.109375 -0.359375,0 -0.640625,0 -0.640625,-0.171875 0,-0.0625 0.015625,-0.109375 0.03125,-0.171875 l 0.65625,-2.640625 h 1.1875 c 0.90625,0 1.078125,0.5625 1.078125,0.90625 0,0.140625 -0.078125,0.453125 -0.140625,0.6875 C 5.09375,-1.421875 5,-1.0625 5,-0.859375 5,0.21875 6.203125,0.21875 6.328125,0.21875 c 0.84375,0 1.203125,-1 1.203125,-1.140625 0,-0.125 -0.109375,-0.125 -0.125,-0.125 -0.09375,0 -0.109375,0.0625 -0.125,0.140625 C 7.03125,-0.171875 6.59375,0 6.375,0 6.046875,0 5.96875,-0.21875 5.96875,-0.609375 c 0,-0.3125 0.0625,-0.8125 0.109375,-1.140625 0.015625,-0.140625 0.03125,-0.328125 0.03125,-0.46875 0,-0.765625 -0.671875,-1.078125 -0.9375,-1.171875 z m 0,0"
   id="id-3015790f-e409-4ae9-9db9-e9b5fad1e065"
   style="fill:#353535;fill-opacity:1;stroke-width:0" />
      </g>
      <g
   id="id-2a972665-4e76-42e7-bf96-abe4636d06ad"
   style="fill:#353535;fill-opacity:1;stroke-width:0">
        <path
   d="m 1.4375,-0.84375 c -0.25,0.390625 -0.46875,0.5625 -0.875,0.59375 -0.078125,0 -0.171875,0 -0.171875,0.140625 C 0.390625,-0.03125 0.453125,0 0.5,0 0.671875,0 0.90625,-0.03125 1.09375,-0.03125 1.3125,-0.03125 1.609375,0 1.8125,0 1.84375,0 1.953125,0 1.953125,-0.15625 1.953125,-0.25 1.859375,-0.25 1.828125,-0.25 1.78125,-0.265625 1.53125,-0.265625 1.53125,-0.453125 c 0,-0.09375 0.0625,-0.203125 0.09375,-0.265625 l 0.5625,-0.875 h 2 L 4.34375,-0.4375 C 4.328125,-0.359375 4.28125,-0.25 3.875,-0.25 c -0.09375,0 -0.1875,0 -0.1875,0.15625 C 3.6875,-0.0625 3.703125,0 3.796875,0 4,0 4.5,-0.03125 4.703125,-0.03125 c 0.125,0 0.28125,0.015625 0.40625,0.015625 C 5.234375,-0.015625 5.375,0 5.5,0 5.59375,0 5.640625,-0.0625 5.640625,-0.140625 5.640625,-0.25 5.5625,-0.25 5.453125,-0.25 c -0.40625,0 -0.421875,-0.0625 -0.4375,-0.21875 l -0.625,-4.3125 C 4.375,-4.921875 4.359375,-4.96875 4.234375,-4.96875 4.09375,-4.96875 4.0625,-4.90625 4,-4.8125 Z m 0.921875,-1 L 3.8125,-4.125 4.140625,-1.84375 Z m 0,0"
   id="id-81d0d35d-4700-44b3-b304-b7aaa5ae3aa4"
   style="fill:#353535;fill-opacity:1;stroke-width:0" />
      </g>
      <g
   id="id-85c6bae4-ec63-49de-8a78-a66ed06d6d36"
   style="fill:#353535;fill-opacity:1;stroke-width:0">
        <path
   d="m 7.109375,-4.1875 c 0.0625,-0.265625 0.078125,-0.328125 0.59375,-0.328125 0.15625,0 0.234375,0 0.234375,-0.140625 0,-0.109375 -0.078125,-0.109375 -0.203125,-0.109375 H 6.78125 c -0.203125,0 -0.203125,0.015625 -0.296875,0.140625 l -2.6875,3.984375 -0.6875,-3.9375 c -0.03125,-0.171875 -0.03125,-0.1875 -0.25,-0.1875 H 1.875 c -0.140625,0 -0.234375,0 -0.234375,0.15625 0,0.09375 0.078125,0.09375 0.234375,0.09375 0.109375,0 0.140625,0 0.265625,0.015625 0.140625,0.015625 0.15625,0.03125 0.15625,0.109375 0,0 0,0.046875 -0.03125,0.140625 l -0.875,3.5 c -0.0625,0.234375 -0.171875,0.484375 -0.734375,0.5 -0.046875,0 -0.140625,0 -0.140625,0.15625 0,0 0,0.09375 0.109375,0.09375 0.203125,0 0.5,-0.03125 0.71875,-0.03125 C 1.515625,-0.03125 1.921875,0 2.078125,0 2.125,0 2.21875,0 2.21875,-0.15625 2.21875,-0.25 2.125,-0.25 2.0625,-0.25 1.625,-0.265625 1.625,-0.453125 1.625,-0.546875 c 0,-0.03125 0,-0.0625 0.03125,-0.171875 l 0.921875,-3.703125 0.75,4.234375 C 3.359375,-0.0625 3.359375,0 3.46875,0 3.5625,0 3.625,-0.078125 3.671875,-0.15625 L 6.59375,-4.5 6.609375,-4.484375 5.625,-0.546875 C 5.5625,-0.3125 5.546875,-0.25 5.015625,-0.25 c -0.125,0 -0.21875,0 -0.21875,0.15625 0,0 0,0.09375 0.109375,0.09375 0.140625,0 0.296875,-0.015625 0.4375,-0.015625 0.140625,0 0.296875,-0.015625 0.4375,-0.015625 C 5.984375,-0.03125 6.46875,0 6.671875,0 6.703125,0 6.8125,0 6.8125,-0.15625 6.8125,-0.25 6.734375,-0.25 6.59375,-0.25 c -0.015625,0 -0.140625,0 -0.265625,-0.015625 -0.15625,-0.015625 -0.15625,-0.03125 -0.15625,-0.109375 0,-0.03125 0.015625,-0.109375 0.015625,-0.140625 z m 0,0"
   id="id-2be69f11-0165-4dfc-89dd-ab0e8cf4f880"
   style="fill:#353535;fill-opacity:1;stroke-width:0" />
      </g>
      <g
   id="id-6a985782-f71d-4d71-b386-80eb04f96f2b"
   style="fill:#353535;fill-opacity:1;stroke-width:0">
        <path
   d="M 3.59375,-2.21875 C 3.59375,-2.984375 3.5,-3.546875 3.1875,-4.03125 2.96875,-4.34375 2.53125,-4.625 1.984375,-4.625 c -1.625,0 -1.625,1.90625 -1.625,2.40625 0,0.5 0,2.359375 1.625,2.359375 1.609375,0 1.609375,-1.859375 1.609375,-2.359375 z M 1.984375,-0.0625 c -0.328125,0 -0.75,-0.1875 -0.890625,-0.75 C 1,-1.21875 1,-1.796875 1,-2.3125 1,-2.828125 1,-3.359375 1.09375,-3.734375 1.25,-4.28125 1.6875,-4.4375 1.984375,-4.4375 c 0.375,0 0.734375,0.234375 0.859375,0.640625 0.109375,0.375 0.125,0.875 0.125,1.484375 0,0.515625 0,1.03125 -0.09375,1.46875 -0.140625,0.640625 -0.609375,0.78125 -0.890625,0.78125 z m 0,0"
   id="id-7f58e491-b879-46a5-aa32-8eb88c6aefc7"
   style="fill:#353535;fill-opacity:1;stroke-width:0" />
      </g>
      <g
   id="id-28535895-7f57-47af-9c82-3bd5315a3428"
   style="fill:#353535;fill-opacity:1;stroke-width:0">
        <path
   d="m 6.84375,-3.265625 c 0.15625,0 0.34375,0 0.34375,-0.1875 C 7.1875,-3.65625 7,-3.65625 6.859375,-3.65625 h -5.96875 c -0.140625,0 -0.328125,0 -0.328125,0.203125 0,0.1875 0.1875,0.1875 0.328125,0.1875 z m 0.015625,1.9375 c 0.140625,0 0.328125,0 0.328125,-0.203125 0,-0.1875 -0.1875,-0.1875 -0.34375,-0.1875 H 0.890625 c -0.140625,0 -0.328125,0 -0.328125,0.1875 0,0.203125 0.1875,0.203125 0.328125,0.203125 z m 0,0"
   id="id-654355ad-eed9-4db2-a044-a51b50ff5510"
   style="fill:#353535;fill-opacity:1;stroke-width:0" />
      </g>
      <g
   id="id-44483730-a999-4699-8aa0-120d27bb3b6f"
   style="fill:#353535;fill-opacity:1;stroke-width:0">
        <path
   d="m 2.890625,-3.515625 c 0.8125,-0.265625 1.390625,-0.953125 1.390625,-1.75 0,-0.8125 -0.875,-1.375 -1.828125,-1.375 -1,0 -1.765625,0.59375 -1.765625,1.359375 0,0.328125 0.21875,0.515625 0.515625,0.515625 0.296875,0 0.5,-0.21875 0.5,-0.515625 0,-0.484375 -0.46875,-0.484375 -0.609375,-0.484375 0.296875,-0.5 0.953125,-0.625 1.3125,-0.625 0.421875,0 0.96875,0.21875 0.96875,1.109375 0,0.125 -0.03125,0.703125 -0.28125,1.140625 C 2.796875,-3.65625 2.453125,-3.625 2.203125,-3.625 2.125,-3.609375 1.890625,-3.59375 1.8125,-3.59375 c -0.078125,0.015625 -0.140625,0.03125 -0.140625,0.125 0,0.109375 0.0625,0.109375 0.234375,0.109375 h 0.4375 c 0.8125,0 1.1875,0.671875 1.1875,1.65625 0,1.359375 -0.6875,1.640625 -1.125,1.640625 -0.4375,0 -1.1875,-0.171875 -1.53125,-0.75 0.34375,0.046875 0.65625,-0.171875 0.65625,-0.546875 0,-0.359375 -0.265625,-0.5625 -0.546875,-0.5625 -0.25,0 -0.5625,0.140625 -0.5625,0.578125 0,0.90625 0.921875,1.5625 2.015625,1.5625 1.21875,0 2.125,-0.90625 2.125,-1.921875 0,-0.8125 -0.640625,-1.59375 -1.671875,-1.8125 z m 0,0"
   id="id-d6286a82-42a3-4498-96e6-d55b0e786bd2"
   style="fill:#353535;fill-opacity:1;stroke-width:0" />
      </g>
    </g>
  </defs>
  <g
   fill-opacity="1"
   id="id-e9e8d21d-44de-4c8d-8d2d-c5ef7261c49c"
   transform="translate(-149.118,-126.18)"
   style="fill:#353535;fill-opacity:1;stroke-width:0">
    <g
   transform="translate(148.712,134.765)"
   style="fill:#353535;fill-opacity:1;stroke-width:0"
   id="g26"><path
   d="m 3.734375,-6.125 c 0.0625,-0.234375 0.09375,-0.328125 0.28125,-0.359375 C 4.109375,-6.5 4.421875,-6.5 4.625,-6.5 c 0.703125,0 1.8125,0 1.8125,0.984375 0,0.34375 -0.15625,1.03125 -0.546875,1.421875 -0.265625,0.25 -0.78125,0.578125 -1.6875,0.578125 H 3.09375 Z m 1.4375,2.734375 c 1.015625,-0.21875 2.1875,-0.921875 2.1875,-1.921875 0,-0.859375 -0.890625,-1.5 -2.203125,-1.5 H 2.328125 c -0.203125,0 -0.296875,0 -0.296875,0.203125 C 2.03125,-6.5 2.125,-6.5 2.3125,-6.5 c 0.015625,0 0.203125,0 0.375,0.015625 0.1875,0.03125 0.265625,0.03125 0.265625,0.171875 0,0.03125 0,0.0625 -0.03125,0.1875 l -1.34375,5.34375 C 1.484375,-0.390625 1.46875,-0.3125 0.671875,-0.3125 0.5,-0.3125 0.40625,-0.3125 0.40625,-0.109375 0.40625,0 0.53125,0 0.546875,0 c 0.28125,0 0.984375,-0.03125 1.25,-0.03125 0.28125,0 1,0.03125 1.28125,0.03125 0.078125,0 0.1875,0 0.1875,-0.203125 0,-0.109375 -0.078125,-0.109375 -0.28125,-0.109375 -0.359375,0 -0.640625,0 -0.640625,-0.171875 0,-0.0625 0.015625,-0.109375 0.03125,-0.171875 l 0.65625,-2.640625 h 1.1875 c 0.90625,0 1.078125,0.5625 1.078125,0.90625 0,0.140625 -0.078125,0.453125 -0.140625,0.6875 C 5.09375,-1.421875 5,-1.0625 5,-0.859375 5,0.21875 6.203125,0.21875 6.328125,0.21875 c 0.84375,0 1.203125,-1 1.203125,-1.140625 0,-0.125 -0.109375,-0.125 -0.125,-0.125 -0.09375,0 -0.109375,0.0625 -0.125,0.140625 C 7.03125,-0.171875 6.59375,0 6.375,0 6.046875,0 5.96875,-0.21875 5.96875,-0.609375 c 0,-0.3125 0.0625,-0.8125 0.109375,-1.140625 0.015625,-0.140625 0.03125,-0.328125 0.03125,-0.46875 0,-0.765625 -0.671875,-1.078125 -0.9375,-1.171875 z m 0,0"
   id="id-8bb0a2db-c14b-466e-92d6-0ec324df5486"
   style="fill:#353535;fill-opacity:1;stroke-width:0" />
      </g></g>
  <g
   fill-opacity="1"
   id="id-687df208-67b2-4487-a662-3a5b47846beb"
   transform="translate(-149.118,-126.18)"
   style="fill:#353535;fill-opacity:1;stroke-width:0">
    <g
   transform="translate(156.354,131.149)"
   style="fill:#353535;fill-opacity:1;stroke-width:0"
   id="g27"><path
   d="m 1.4375,-0.84375 c -0.25,0.390625 -0.46875,0.5625 -0.875,0.59375 -0.078125,0 -0.171875,0 -0.171875,0.140625 C 0.390625,-0.03125 0.453125,0 0.5,0 0.671875,0 0.90625,-0.03125 1.09375,-0.03125 1.3125,-0.03125 1.609375,0 1.8125,0 1.84375,0 1.953125,0 1.953125,-0.15625 1.953125,-0.25 1.859375,-0.25 1.828125,-0.25 1.78125,-0.265625 1.53125,-0.265625 1.53125,-0.453125 c 0,-0.09375 0.0625,-0.203125 0.09375,-0.265625 l 0.5625,-0.875 h 2 L 4.34375,-0.4375 C 4.328125,-0.359375 4.28125,-0.25 3.875,-0.25 c -0.09375,0 -0.1875,0 -0.1875,0.15625 C 3.6875,-0.0625 3.703125,0 3.796875,0 4,0 4.5,-0.03125 4.703125,-0.03125 c 0.125,0 0.28125,0.015625 0.40625,0.015625 C 5.234375,-0.015625 5.375,0 5.5,0 5.59375,0 5.640625,-0.0625 5.640625,-0.140625 5.640625,-0.25 5.5625,-0.25 5.453125,-0.25 c -0.40625,0 -0.421875,-0.0625 -0.4375,-0.21875 l -0.625,-4.3125 C 4.375,-4.921875 4.359375,-4.96875 4.234375,-4.96875 4.09375,-4.96875 4.0625,-4.90625 4,-4.8125 Z m 0.921875,-1 L 3.8125,-4.125 4.140625,-1.84375 Z m 0,0"
   id="id-527b0159-2e47-47d7-98db-30a574627bc1"
   style="fill:#353535;fill-opacity:1;stroke-width:0" />
      </g><g
   transform="translate(162.345,131.149)"
   style="fill:#353535;fill-opacity:1;stroke-width:0"
   id="g28"><path
   d="m 7.109375,-4.1875 c 0.0625,-0.265625 0.078125,-0.328125 0.59375,-0.328125 0.15625,0 0.234375,0 0.234375,-0.140625 0,-0.109375 -0.078125,-0.109375 -0.203125,-0.109375 H 6.78125 c -0.203125,0 -0.203125,0.015625 -0.296875,0.140625 l -2.6875,3.984375 -0.6875,-3.9375 c -0.03125,-0.171875 -0.03125,-0.1875 -0.25,-0.1875 H 1.875 c -0.140625,0 -0.234375,0 -0.234375,0.15625 0,0.09375 0.078125,0.09375 0.234375,0.09375 0.109375,0 0.140625,0 0.265625,0.015625 0.140625,0.015625 0.15625,0.03125 0.15625,0.109375 0,0 0,0.046875 -0.03125,0.140625 l -0.875,3.5 c -0.0625,0.234375 -0.171875,0.484375 -0.734375,0.5 -0.046875,0 -0.140625,0 -0.140625,0.15625 0,0 0,0.09375 0.109375,0.09375 0.203125,0 0.5,-0.03125 0.71875,-0.03125 C 1.515625,-0.03125 1.921875,0 2.078125,0 2.125,0 2.21875,0 2.21875,-0.15625 2.21875,-0.25 2.125,-0.25 2.0625,-0.25 1.625,-0.265625 1.625,-0.453125 1.625,-0.546875 c 0,-0.03125 0,-0.0625 0.03125,-0.171875 l 0.921875,-3.703125 0.75,4.234375 C 3.359375,-0.0625 3.359375,0 3.46875,0 3.5625,0 3.625,-0.078125 3.671875,-0.15625 L 6.59375,-4.5 6.609375,-4.484375 5.625,-0.546875 C 5.5625,-0.3125 5.546875,-0.25 5.015625,-0.25 c -0.125,0 -0.21875,0 -0.21875,0.15625 0,0 0,0.09375 0.109375,0.09375 0.140625,0 0.296875,-0.015625 0.4375,-0.015625 0.140625,0 0.296875,-0.015625 0.4375,-0.015625 C 5.984375,-0.03125 6.46875,0 6.671875,0 6.703125,0 6.8125,0 6.8125,-0.15625 6.8125,-0.25 6.734375,-0.25 6.59375,-0.25 c -0.015625,0 -0.140625,0 -0.265625,-0.015625 -0.15625,-0.015625 -0.15625,-0.03125 -0.15625,-0.109375 0,-0.03125 0.015625,-0.109375 0.015625,-0.140625 z m 0,0"
   id="id-517035f2-55da-489b-9d02-65da63bf820b"
   style="fill:#353535;fill-opacity:1;stroke-width:0" />
      </g></g>
  <g
   fill-opacity="1"
   id="id-b64e93f9-c7bd-4a32-8114-b34e56e1c750"
   transform="translate(-149.118,-126.18)"
   style="fill:#353535;fill-opacity:1;stroke-width:0">
    <g
   transform="translate(156.277,137.237)"
   style="fill:#353535;fill-opacity:1;stroke-width:0"
   id="g29"><path
   d="M 3.59375,-2.21875 C 3.59375,-2.984375 3.5,-3.546875 3.1875,-4.03125 2.96875,-4.34375 2.53125,-4.625 1.984375,-4.625 c -1.625,0 -1.625,1.90625 -1.625,2.40625 0,0.5 0,2.359375 1.625,2.359375 1.609375,0 1.609375,-1.859375 1.609375,-2.359375 z M 1.984375,-0.0625 c -0.328125,0 -0.75,-0.1875 -0.890625,-0.75 C 1,-1.21875 1,-1.796875 1,-2.3125 1,-2.828125 1,-3.359375 1.09375,-3.734375 1.25,-4.28125 1.6875,-4.4375 1.984375,-4.4375 c 0.375,0 0.734375,0.234375 0.859375,0.640625 0.109375,0.375 0.125,0.875 0.125,1.484375 0,0.515625 0,1.03125 -0.09375,1.46875 -0.140625,0.640625 -0.609375,0.78125 -0.890625,0.78125 z m 0,0"
   id="id-c844c54e-1a0d-4cf3-9468-520094e96522"
   style="fill:#353535;fill-opacity:1;stroke-width:0" />
      </g></g>
  <g
   fill-opacity="1"
   id="id-e94e3931-0483-4c45-b441-f68857a51c0e"
   transform="translate(-149.118,-126.18)"
   style="fill:#353535;fill-opacity:1;stroke-width:0">
    <g
   transform="translate(173.956,134.765)"
   style="fill:#353535;fill-opacity:1;stroke-width:0"
   id="g30"><path
   d="m 6.84375,-3.265625 c 0.15625,0 0.34375,0 0.34375,-0.1875 C 7.1875,-3.65625 7,-3.65625 6.859375,-3.65625 h -5.96875 c -0.140625,0 -0.328125,0 -0.328125,0.203125 0,0.1875 0.1875,0.1875 0.328125,0.1875 z m 0.015625,1.9375 c 0.140625,0 0.328125,0 0.328125,-0.203125 0,-0.1875 -0.1875,-0.1875 -0.34375,-0.1875 H 0.890625 c -0.140625,0 -0.328125,0 -0.328125,0.1875 0,0.203125 0.1875,0.203125 0.328125,0.203125 z m 0,0"
   id="id-226cea13-5f0b-4def-bb3e-9bfb1aa07933"
   style="fill:#353535;fill-opacity:1;stroke-width:0" />
      </g></g>
  <g
   fill-opacity="1"
   id="id-299d1916-4cac-4ee0-bc0b-644ba94d8163"
   transform="translate(-149.118,-126.18)"
   style="fill:#353535;fill-opacity:1;stroke-width:0">
    <g
   transform="translate(184.475,134.765)"
   style="fill:#353535;fill-opacity:1;stroke-width:0"
   id="g31"><path
   d="m 2.890625,-3.515625 c 0.8125,-0.265625 1.390625,-0.953125 1.390625,-1.75 0,-0.8125 -0.875,-1.375 -1.828125,-1.375 -1,0 -1.765625,0.59375 -1.765625,1.359375 0,0.328125 0.21875,0.515625 0.515625,0.515625 0.296875,0 0.5,-0.21875 0.5,-0.515625 0,-0.484375 -0.46875,-0.484375 -0.609375,-0.484375 0.296875,-0.5 0.953125,-0.625 1.3125,-0.625 0.421875,0 0.96875,0.21875 0.96875,1.109375 0,0.125 -0.03125,0.703125 -0.28125,1.140625 C 2.796875,-3.65625 2.453125,-3.625 2.203125,-3.625 2.125,-3.609375 1.890625,-3.59375 1.8125,-3.59375 c -0.078125,0.015625 -0.140625,0.03125 -0.140625,0.125 0,0.109375 0.0625,0.109375 0.234375,0.109375 h 0.4375 c 0.8125,0 1.1875,0.671875 1.1875,1.65625 0,1.359375 -0.6875,1.640625 -1.125,1.640625 -0.4375,0 -1.1875,-0.171875 -1.53125,-0.75 0.34375,0.046875 0.65625,-0.171875 0.65625,-0.546875 0,-0.359375 -0.265625,-0.5625 -0.546875,-0.5625 -0.25,0 -0.5625,0.140625 -0.5625,0.578125 0,0.90625 0.921875,1.5625 2.015625,1.5625 1.21875,0 2.125,-0.90625 2.125,-1.921875 0,-0.8125 -0.640625,-1.59375 -1.671875,-1.8125 z m 0,0"
   id="id-77f7317d-4e9a-43d9-81ea-2acffdee3cb7"
   style="fill:#353535;fill-opacity:1;stroke-width:0" />
      </g></g>
</g><g
       transform="matrix(2,0,0,2,-39.821225,219.40915)"
       ns4:version="1.10.2"
       ns4:texconverter="pdflatex"
       ns4:pdfconverter="inkscape"
       ns4:text="$R_0^{\\text{AM}} = 2$"
       ns4:preamble="/Users/benja/Library/Application Support/org.inkscape.Inkscape/config/inkscape/extensions/textext/default_packages.tex"
       ns4:scale="1.5"
       ns4:alignment="middle center"
       ns4:stroke-to-path="0"
       ns4:inkscapeversion="1.4"
       ns4:jacobian_sqrt="2.0"
       style="fill:#353535;fill-opacity:1;stroke-width:0"
       id="g13"><defs
   id="id-6aab2aad-5d29-48ae-aa14-27fdf3bcafd4"
   style="fill:#353535;fill-opacity:1;stroke-width:0">
    <g
   id="id-5114e4d5-1b57-4466-b8c0-c34b07813534"
   style="fill:#353535;fill-opacity:1;stroke-width:0">
      <g
   id="id-8213d176-86b6-46a8-90b3-d3c9fcc2fe42"
   style="fill:#353535;fill-opacity:1;stroke-width:0">
        <path
   d="m 3.734375,-6.125 c 0.0625,-0.234375 0.09375,-0.328125 0.28125,-0.359375 C 4.109375,-6.5 4.421875,-6.5 4.625,-6.5 c 0.703125,0 1.8125,0 1.8125,0.984375 0,0.34375 -0.15625,1.03125 -0.546875,1.421875 -0.265625,0.25 -0.78125,0.578125 -1.6875,0.578125 H 3.09375 Z m 1.4375,2.734375 c 1.015625,-0.21875 2.1875,-0.921875 2.1875,-1.921875 0,-0.859375 -0.890625,-1.5 -2.203125,-1.5 H 2.328125 c -0.203125,0 -0.296875,0 -0.296875,0.203125 C 2.03125,-6.5 2.125,-6.5 2.3125,-6.5 c 0.015625,0 0.203125,0 0.375,0.015625 0.1875,0.03125 0.265625,0.03125 0.265625,0.171875 0,0.03125 0,0.0625 -0.03125,0.1875 l -1.34375,5.34375 C 1.484375,-0.390625 1.46875,-0.3125 0.671875,-0.3125 0.5,-0.3125 0.40625,-0.3125 0.40625,-0.109375 0.40625,0 0.53125,0 0.546875,0 c 0.28125,0 0.984375,-0.03125 1.25,-0.03125 0.28125,0 1,0.03125 1.28125,0.03125 0.078125,0 0.1875,0 0.1875,-0.203125 0,-0.109375 -0.078125,-0.109375 -0.28125,-0.109375 -0.359375,0 -0.640625,0 -0.640625,-0.171875 0,-0.0625 0.015625,-0.109375 0.03125,-0.171875 l 0.65625,-2.640625 h 1.1875 c 0.90625,0 1.078125,0.5625 1.078125,0.90625 0,0.140625 -0.078125,0.453125 -0.140625,0.6875 C 5.09375,-1.421875 5,-1.0625 5,-0.859375 5,0.21875 6.203125,0.21875 6.328125,0.21875 c 0.84375,0 1.203125,-1 1.203125,-1.140625 0,-0.125 -0.109375,-0.125 -0.125,-0.125 -0.09375,0 -0.109375,0.0625 -0.125,0.140625 C 7.03125,-0.171875 6.59375,0 6.375,0 6.046875,0 5.96875,-0.21875 5.96875,-0.609375 c 0,-0.3125 0.0625,-0.8125 0.109375,-1.140625 0.015625,-0.140625 0.03125,-0.328125 0.03125,-0.46875 0,-0.765625 -0.671875,-1.078125 -0.9375,-1.171875 z m 0,0"
   id="id-b7045816-69ae-474f-99e8-1d1b9dcbdbc0"
   style="fill:#353535;fill-opacity:1;stroke-width:0" />
      </g>
      <g
   id="id-10ed0828-d2c4-4c92-8bb9-f00ac50514e0"
   style="fill:#353535;fill-opacity:1;stroke-width:0">
        <path
   d="M 3.125,-4.8125 C 3.09375,-4.921875 3.0625,-4.96875 2.9375,-4.96875 c -0.140625,0 -0.15625,0.046875 -0.203125,0.15625 L 1.125,-0.734375 C 1.0625,-0.5625 0.9375,-0.25 0.3125,-0.25 V 0 C 0.546875,-0.015625 0.796875,-0.03125 1.03125,-0.03125 1.3125,-0.03125 1.828125,0 1.875,0 v -0.25 c -0.3125,0 -0.515625,-0.140625 -0.515625,-0.328125 0,-0.0625 0.015625,-0.078125 0.046875,-0.140625 L 1.734375,-1.578125 H 3.71875 L 4.125,-0.5625 c 0,0.03125 0.03125,0.078125 0.03125,0.109375 C 4.15625,-0.25 3.78125,-0.25 3.59375,-0.25 V 0 C 3.9375,-0.015625 4.390625,-0.03125 4.625,-0.03125 4.953125,-0.03125 5.484375,0 5.546875,0 v -0.25 h -0.125 c -0.46875,0 -0.515625,-0.078125 -0.59375,-0.265625 z m -0.40625,0.71875 0.890625,2.265625 h -1.78125 z m 0,0"
   id="id-69afcfaa-bff1-4f60-9cff-af3ad72a4e68"
   style="fill:#353535;fill-opacity:1;stroke-width:0" />
      </g>
      <g
   id="id-18ae61c0-6c28-45a7-89de-9d4e28b7330e"
   style="fill:#353535;fill-opacity:1;stroke-width:0">
        <path
   d="m 1.921875,-4.609375 c -0.0625,-0.15625 -0.125,-0.15625 -0.265625,-0.15625 H 0.4375 v 0.25 h 0.15625 c 0.546875,0 0.5625,0.078125 0.5625,0.328125 V -0.75 c 0,0.1875 0,0.5 -0.71875,0.5 V 0 C 0.71875,-0.015625 1,-0.03125 1.28125,-0.03125 1.5625,-0.03125 1.84375,-0.015625 2.125,0 v -0.25 c -0.703125,0 -0.703125,-0.3125 -0.703125,-0.5 v -3.6875 l 1.8125,4.28125 C 3.265625,-0.078125 3.296875,0 3.40625,0 3.453125,0 3.515625,-0.015625 3.578125,-0.140625 L 5.421875,-4.5 v 3.9375 C 5.421875,-0.328125 5.40625,-0.25 4.875,-0.25 H 4.703125 V 0 c 0.328125,-0.015625 0.71875,-0.03125 1.015625,-0.03125 0.28125,0 0.671875,0.015625 1,0.03125 V -0.25 H 6.5625 C 6.015625,-0.25 6,-0.328125 6,-0.5625 v -3.625 c 0,-0.25 0.015625,-0.328125 0.5625,-0.328125 h 0.15625 v -0.25 H 5.515625 c -0.140625,0 -0.203125,0 -0.265625,0.140625 l -1.671875,3.953125 z m 0,0"
   id="id-b7758255-50fc-4878-93db-cd4659b99230"
   style="fill:#353535;fill-opacity:1;stroke-width:0" />
      </g>
      <g
   id="id-f8d7bbbe-620f-42d1-bd7e-af1b1193fee1"
   style="fill:#353535;fill-opacity:1;stroke-width:0">
        <path
   d="M 3.59375,-2.21875 C 3.59375,-2.984375 3.5,-3.546875 3.1875,-4.03125 2.96875,-4.34375 2.53125,-4.625 1.984375,-4.625 c -1.625,0 -1.625,1.90625 -1.625,2.40625 0,0.5 0,2.359375 1.625,2.359375 1.609375,0 1.609375,-1.859375 1.609375,-2.359375 z M 1.984375,-0.0625 c -0.328125,0 -0.75,-0.1875 -0.890625,-0.75 C 1,-1.21875 1,-1.796875 1,-2.3125 1,-2.828125 1,-3.359375 1.09375,-3.734375 1.25,-4.28125 1.6875,-4.4375 1.984375,-4.4375 c 0.375,0 0.734375,0.234375 0.859375,0.640625 0.109375,0.375 0.125,0.875 0.125,1.484375 0,0.515625 0,1.03125 -0.09375,1.46875 -0.140625,0.640625 -0.609375,0.78125 -0.890625,0.78125 z m 0,0"
   id="id-f4af76e2-f02e-45de-aaea-b86490ce10d3"
   style="fill:#353535;fill-opacity:1;stroke-width:0" />
      </g>
      <g
   id="id-c1f457b6-2f27-4bfa-9d79-6e682fd7942f"
   style="fill:#353535;fill-opacity:1;stroke-width:0">
        <path
   d="m 6.84375,-3.265625 c 0.15625,0 0.34375,0 0.34375,-0.1875 C 7.1875,-3.65625 7,-3.65625 6.859375,-3.65625 h -5.96875 c -0.140625,0 -0.328125,0 -0.328125,0.203125 0,0.1875 0.1875,0.1875 0.328125,0.1875 z m 0.015625,1.9375 c 0.140625,0 0.328125,0 0.328125,-0.203125 0,-0.1875 -0.1875,-0.1875 -0.34375,-0.1875 H 0.890625 c -0.140625,0 -0.328125,0 -0.328125,0.1875 0,0.203125 0.1875,0.203125 0.328125,0.203125 z m 0,0"
   id="id-01219836-2609-463d-9726-5f68a4ca421f"
   style="fill:#353535;fill-opacity:1;stroke-width:0" />
      </g>
      <g
   id="id-a3d45110-5bf7-4dc5-8e40-b249605e2bc5"
   style="fill:#353535;fill-opacity:1;stroke-width:0">
        <path
   d="m 1.265625,-0.765625 1.0625,-1.03125 c 1.546875,-1.375 2.140625,-1.90625 2.140625,-2.90625 0,-1.140625 -0.890625,-1.9375 -2.109375,-1.9375 -1.125,0 -1.859375,0.921875 -1.859375,1.8125 0,0.546875 0.5,0.546875 0.53125,0.546875 0.171875,0 0.515625,-0.109375 0.515625,-0.53125 0,-0.25 -0.1875,-0.515625 -0.53125,-0.515625 -0.078125,0 -0.09375,0 -0.125,0.015625 0.21875,-0.65625 0.765625,-1.015625 1.34375,-1.015625 0.90625,0 1.328125,0.8125 1.328125,1.625 C 3.5625,-3.90625 3.078125,-3.125 2.515625,-2.5 l -1.90625,2.125 C 0.5,-0.265625 0.5,-0.234375 0.5,0 H 4.203125 L 4.46875,-1.734375 H 4.234375 C 4.171875,-1.4375 4.109375,-1 4,-0.84375 3.9375,-0.765625 3.28125,-0.765625 3.0625,-0.765625 Z m 0,0"
   id="id-77a36f97-27b0-4502-9d46-4ea5b954590f"
   style="fill:#353535;fill-opacity:1;stroke-width:0" />
      </g>
    </g>
  </defs>
  <g
   fill-opacity="1"
   id="id-b224c51c-1db8-49b4-bf06-a4752151b4c4"
   transform="translate(-149.118,-126.18)"
   style="fill:#353535;fill-opacity:1;stroke-width:0">
    <g
   transform="translate(148.712,134.765)"
   style="fill:#353535;fill-opacity:1;stroke-width:0"
   id="g32"><path
   d="m 3.734375,-6.125 c 0.0625,-0.234375 0.09375,-0.328125 0.28125,-0.359375 C 4.109375,-6.5 4.421875,-6.5 4.625,-6.5 c 0.703125,0 1.8125,0 1.8125,0.984375 0,0.34375 -0.15625,1.03125 -0.546875,1.421875 -0.265625,0.25 -0.78125,0.578125 -1.6875,0.578125 H 3.09375 Z m 1.4375,2.734375 c 1.015625,-0.21875 2.1875,-0.921875 2.1875,-1.921875 0,-0.859375 -0.890625,-1.5 -2.203125,-1.5 H 2.328125 c -0.203125,0 -0.296875,0 -0.296875,0.203125 C 2.03125,-6.5 2.125,-6.5 2.3125,-6.5 c 0.015625,0 0.203125,0 0.375,0.015625 0.1875,0.03125 0.265625,0.03125 0.265625,0.171875 0,0.03125 0,0.0625 -0.03125,0.1875 l -1.34375,5.34375 C 1.484375,-0.390625 1.46875,-0.3125 0.671875,-0.3125 0.5,-0.3125 0.40625,-0.3125 0.40625,-0.109375 0.40625,0 0.53125,0 0.546875,0 c 0.28125,0 0.984375,-0.03125 1.25,-0.03125 0.28125,0 1,0.03125 1.28125,0.03125 0.078125,0 0.1875,0 0.1875,-0.203125 0,-0.109375 -0.078125,-0.109375 -0.28125,-0.109375 -0.359375,0 -0.640625,0 -0.640625,-0.171875 0,-0.0625 0.015625,-0.109375 0.03125,-0.171875 l 0.65625,-2.640625 h 1.1875 c 0.90625,0 1.078125,0.5625 1.078125,0.90625 0,0.140625 -0.078125,0.453125 -0.140625,0.6875 C 5.09375,-1.421875 5,-1.0625 5,-0.859375 5,0.21875 6.203125,0.21875 6.328125,0.21875 c 0.84375,0 1.203125,-1 1.203125,-1.140625 0,-0.125 -0.109375,-0.125 -0.125,-0.125 -0.09375,0 -0.109375,0.0625 -0.125,0.140625 C 7.03125,-0.171875 6.59375,0 6.375,0 6.046875,0 5.96875,-0.21875 5.96875,-0.609375 c 0,-0.3125 0.0625,-0.8125 0.109375,-1.140625 0.015625,-0.140625 0.03125,-0.328125 0.03125,-0.46875 0,-0.765625 -0.671875,-1.078125 -0.9375,-1.171875 z m 0,0"
   id="id-ed4b6a6c-4d5a-4e49-a362-7a09f980e100"
   style="fill:#353535;fill-opacity:1;stroke-width:0" />
      </g></g>
  <g
   fill-opacity="1"
   id="id-c50c460c-8c83-4d24-b302-b2e59f9f716b"
   transform="translate(-149.118,-126.18)"
   style="fill:#353535;fill-opacity:1;stroke-width:0">
    <g
   transform="translate(156.354,131.149)"
   style="fill:#353535;fill-opacity:1;stroke-width:0"
   id="g33"><path
   d="M 3.125,-4.8125 C 3.09375,-4.921875 3.0625,-4.96875 2.9375,-4.96875 c -0.140625,0 -0.15625,0.046875 -0.203125,0.15625 L 1.125,-0.734375 C 1.0625,-0.5625 0.9375,-0.25 0.3125,-0.25 V 0 C 0.546875,-0.015625 0.796875,-0.03125 1.03125,-0.03125 1.3125,-0.03125 1.828125,0 1.875,0 v -0.25 c -0.3125,0 -0.515625,-0.140625 -0.515625,-0.328125 0,-0.0625 0.015625,-0.078125 0.046875,-0.140625 L 1.734375,-1.578125 H 3.71875 L 4.125,-0.5625 c 0,0.03125 0.03125,0.078125 0.03125,0.109375 C 4.15625,-0.25 3.78125,-0.25 3.59375,-0.25 V 0 C 3.9375,-0.015625 4.390625,-0.03125 4.625,-0.03125 4.953125,-0.03125 5.484375,0 5.546875,0 v -0.25 h -0.125 c -0.46875,0 -0.515625,-0.078125 -0.59375,-0.265625 z m -0.40625,0.71875 0.890625,2.265625 h -1.78125 z m 0,0"
   id="id-53e37164-91cd-4e0c-ba07-f28150434b63"
   style="fill:#353535;fill-opacity:1;stroke-width:0" />
      </g><g
   transform="translate(162.235,131.149)"
   style="fill:#353535;fill-opacity:1;stroke-width:0"
   id="g34"><path
   d="m 1.921875,-4.609375 c -0.0625,-0.15625 -0.125,-0.15625 -0.265625,-0.15625 H 0.4375 v 0.25 h 0.15625 c 0.546875,0 0.5625,0.078125 0.5625,0.328125 V -0.75 c 0,0.1875 0,0.5 -0.71875,0.5 V 0 C 0.71875,-0.015625 1,-0.03125 1.28125,-0.03125 1.5625,-0.03125 1.84375,-0.015625 2.125,0 v -0.25 c -0.703125,0 -0.703125,-0.3125 -0.703125,-0.5 v -3.6875 l 1.8125,4.28125 C 3.265625,-0.078125 3.296875,0 3.40625,0 3.453125,0 3.515625,-0.015625 3.578125,-0.140625 L 5.421875,-4.5 v 3.9375 C 5.421875,-0.328125 5.40625,-0.25 4.875,-0.25 H 4.703125 V 0 c 0.328125,-0.015625 0.71875,-0.03125 1.015625,-0.03125 0.28125,0 0.671875,0.015625 1,0.03125 V -0.25 H 6.5625 C 6.015625,-0.25 6,-0.328125 6,-0.5625 v -3.625 c 0,-0.25 0.015625,-0.328125 0.5625,-0.328125 h 0.15625 v -0.25 H 5.515625 c -0.140625,0 -0.203125,0 -0.265625,0.140625 l -1.671875,3.953125 z m 0,0"
   id="id-3abf9c00-3d2b-4f83-8cbe-e6446c792b07"
   style="fill:#353535;fill-opacity:1;stroke-width:0" />
      </g></g>
  <g
   fill-opacity="1"
   id="id-18632c81-bbb3-4193-8276-18a495db3740"
   transform="translate(-149.118,-126.18)"
   style="fill:#353535;fill-opacity:1;stroke-width:0">
    <g
   transform="translate(156.277,137.237)"
   style="fill:#353535;fill-opacity:1;stroke-width:0"
   id="g35"><path
   d="M 3.59375,-2.21875 C 3.59375,-2.984375 3.5,-3.546875 3.1875,-4.03125 2.96875,-4.34375 2.53125,-4.625 1.984375,-4.625 c -1.625,0 -1.625,1.90625 -1.625,2.40625 0,0.5 0,2.359375 1.625,2.359375 1.609375,0 1.609375,-1.859375 1.609375,-2.359375 z M 1.984375,-0.0625 c -0.328125,0 -0.75,-0.1875 -0.890625,-0.75 C 1,-1.21875 1,-1.796875 1,-2.3125 1,-2.828125 1,-3.359375 1.09375,-3.734375 1.25,-4.28125 1.6875,-4.4375 1.984375,-4.4375 c 0.375,0 0.734375,0.234375 0.859375,0.640625 0.109375,0.375 0.125,0.875 0.125,1.484375 0,0.515625 0,1.03125 -0.09375,1.46875 -0.140625,0.640625 -0.609375,0.78125 -0.890625,0.78125 z m 0,0"
   id="id-79cc5b28-e06f-4687-bb56-394891cf9a3d"
   style="fill:#353535;fill-opacity:1;stroke-width:0" />
      </g></g>
  <g
   fill-opacity="1"
   id="id-c07c3298-0ef5-42a8-afba-2ad3fb4170ea"
   transform="translate(-149.118,-126.18)"
   style="fill:#353535;fill-opacity:1;stroke-width:0">
    <g
   transform="translate(172.668,134.765)"
   style="fill:#353535;fill-opacity:1;stroke-width:0"
   id="g36"><path
   d="m 6.84375,-3.265625 c 0.15625,0 0.34375,0 0.34375,-0.1875 C 7.1875,-3.65625 7,-3.65625 6.859375,-3.65625 h -5.96875 c -0.140625,0 -0.328125,0 -0.328125,0.203125 0,0.1875 0.1875,0.1875 0.328125,0.1875 z m 0.015625,1.9375 c 0.140625,0 0.328125,0 0.328125,-0.203125 0,-0.1875 -0.1875,-0.1875 -0.34375,-0.1875 H 0.890625 c -0.140625,0 -0.328125,0 -0.328125,0.1875 0,0.203125 0.1875,0.203125 0.328125,0.203125 z m 0,0"
   id="id-f774f1b5-536a-459e-ac92-3fa97beebe4b"
   style="fill:#353535;fill-opacity:1;stroke-width:0" />
      </g></g>
  <g
   fill-opacity="1"
   id="id-71a5c00b-91f9-4f10-8ff3-0382b17db23f"
   transform="translate(-149.118,-126.18)"
   style="fill:#353535;fill-opacity:1;stroke-width:0">
    <g
   transform="translate(183.187,134.765)"
   style="fill:#353535;fill-opacity:1;stroke-width:0"
   id="g37"><path
   d="m 1.265625,-0.765625 1.0625,-1.03125 c 1.546875,-1.375 2.140625,-1.90625 2.140625,-2.90625 0,-1.140625 -0.890625,-1.9375 -2.109375,-1.9375 -1.125,0 -1.859375,0.921875 -1.859375,1.8125 0,0.546875 0.5,0.546875 0.53125,0.546875 0.171875,0 0.515625,-0.109375 0.515625,-0.53125 0,-0.25 -0.1875,-0.515625 -0.53125,-0.515625 -0.078125,0 -0.09375,0 -0.125,0.015625 0.21875,-0.65625 0.765625,-1.015625 1.34375,-1.015625 0.90625,0 1.328125,0.8125 1.328125,1.625 C 3.5625,-3.90625 3.078125,-3.125 2.515625,-2.5 l -1.90625,2.125 C 0.5,-0.265625 0.5,-0.234375 0.5,0 H 4.203125 L 4.46875,-1.734375 H 4.234375 C 4.171875,-1.4375 4.109375,-1 4,-0.84375 3.9375,-0.765625 3.28125,-0.765625 3.0625,-0.765625 Z m 0,0"
   id="id-a5cbf92e-b312-4861-8b75-05604f9e508c"
   style="fill:#353535;fill-opacity:1;stroke-width:0" />
      </g></g>
</g><g
       transform="matrix(2,0,0,2,-39.821225,262.82066)"
       ns4:version="1.10.2"
       ns4:texconverter="pdflatex"
       ns4:pdfconverter="inkscape"
       ns4:text="$R_0^{\\text{AM}} = 0.5$"
       ns4:preamble="/Users/benja/Library/Application Support/org.inkscape.Inkscape/config/inkscape/extensions/textext/default_packages.tex"
       ns4:scale="1.5"
       ns4:alignment="middle center"
       ns4:stroke-to-path="0"
       ns4:inkscapeversion="1.4"
       ns4:jacobian_sqrt="2.0"
       style="fill:#353535;fill-opacity:1;stroke-width:0"
       id="g8"><defs
   id="id-5ed5b032-4bb2-4bdc-88dd-205abb2f9f4c"
   style="fill:#353535;fill-opacity:1;stroke-width:0">
    <g
   id="id-ebe46b6f-1ca5-490e-b982-a6b7c961fb79"
   style="fill:#353535;fill-opacity:1;stroke-width:0">
      <g
   id="id-11d2affb-02b2-45bd-a39e-bc742a84af0e"
   style="fill:#353535;fill-opacity:1;stroke-width:0">
        <path
   d="m 3.734375,-6.125 c 0.0625,-0.234375 0.09375,-0.328125 0.28125,-0.359375 C 4.109375,-6.5 4.421875,-6.5 4.625,-6.5 c 0.703125,0 1.8125,0 1.8125,0.984375 0,0.34375 -0.15625,1.03125 -0.546875,1.421875 -0.265625,0.25 -0.78125,0.578125 -1.6875,0.578125 H 3.09375 Z m 1.4375,2.734375 c 1.015625,-0.21875 2.1875,-0.921875 2.1875,-1.921875 0,-0.859375 -0.890625,-1.5 -2.203125,-1.5 H 2.328125 c -0.203125,0 -0.296875,0 -0.296875,0.203125 C 2.03125,-6.5 2.125,-6.5 2.3125,-6.5 c 0.015625,0 0.203125,0 0.375,0.015625 0.1875,0.03125 0.265625,0.03125 0.265625,0.171875 0,0.03125 0,0.0625 -0.03125,0.1875 l -1.34375,5.34375 C 1.484375,-0.390625 1.46875,-0.3125 0.671875,-0.3125 0.5,-0.3125 0.40625,-0.3125 0.40625,-0.109375 0.40625,0 0.53125,0 0.546875,0 c 0.28125,0 0.984375,-0.03125 1.25,-0.03125 0.28125,0 1,0.03125 1.28125,0.03125 0.078125,0 0.1875,0 0.1875,-0.203125 0,-0.109375 -0.078125,-0.109375 -0.28125,-0.109375 -0.359375,0 -0.640625,0 -0.640625,-0.171875 0,-0.0625 0.015625,-0.109375 0.03125,-0.171875 l 0.65625,-2.640625 h 1.1875 c 0.90625,0 1.078125,0.5625 1.078125,0.90625 0,0.140625 -0.078125,0.453125 -0.140625,0.6875 C 5.09375,-1.421875 5,-1.0625 5,-0.859375 5,0.21875 6.203125,0.21875 6.328125,0.21875 c 0.84375,0 1.203125,-1 1.203125,-1.140625 0,-0.125 -0.109375,-0.125 -0.125,-0.125 -0.09375,0 -0.109375,0.0625 -0.125,0.140625 C 7.03125,-0.171875 6.59375,0 6.375,0 6.046875,0 5.96875,-0.21875 5.96875,-0.609375 c 0,-0.3125 0.0625,-0.8125 0.109375,-1.140625 0.015625,-0.140625 0.03125,-0.328125 0.03125,-0.46875 0,-0.765625 -0.671875,-1.078125 -0.9375,-1.171875 z m 0,0"
   id="id-a7348988-d5fa-4b01-ab76-da7b75bd445e"
   style="fill:#353535;fill-opacity:1;stroke-width:0" />
      </g>
      <g
   id="id-cc2d1513-b05b-4ed4-b8fe-ea082a87893a"
   style="fill:#353535;fill-opacity:1;stroke-width:0">
        <path
   d="m 1.90625,-0.53125 c 0,-0.28125 -0.234375,-0.53125 -0.515625,-0.53125 -0.296875,0 -0.53125,0.25 -0.53125,0.53125 C 0.859375,-0.234375 1.09375,0 1.390625,0 1.671875,0 1.90625,-0.234375 1.90625,-0.53125 Z m 0,0"
   id="id-1d0f5093-19bd-4955-9628-5b3db0c1a65d"
   style="fill:#353535;fill-opacity:1;stroke-width:0" />
      </g>
      <g
   id="id-55825758-5af0-4c7c-9866-90a3af734af5"
   style="fill:#353535;fill-opacity:1;stroke-width:0">
        <path
   d="M 3.125,-4.8125 C 3.09375,-4.921875 3.0625,-4.96875 2.9375,-4.96875 c -0.140625,0 -0.15625,0.046875 -0.203125,0.15625 L 1.125,-0.734375 C 1.0625,-0.5625 0.9375,-0.25 0.3125,-0.25 V 0 C 0.546875,-0.015625 0.796875,-0.03125 1.03125,-0.03125 1.3125,-0.03125 1.828125,0 1.875,0 v -0.25 c -0.3125,0 -0.515625,-0.140625 -0.515625,-0.328125 0,-0.0625 0.015625,-0.078125 0.046875,-0.140625 L 1.734375,-1.578125 H 3.71875 L 4.125,-0.5625 c 0,0.03125 0.03125,0.078125 0.03125,0.109375 C 4.15625,-0.25 3.78125,-0.25 3.59375,-0.25 V 0 C 3.9375,-0.015625 4.390625,-0.03125 4.625,-0.03125 4.953125,-0.03125 5.484375,0 5.546875,0 v -0.25 h -0.125 c -0.46875,0 -0.515625,-0.078125 -0.59375,-0.265625 z m -0.40625,0.71875 0.890625,2.265625 h -1.78125 z m 0,0"
   id="id-0203e25f-3418-489e-8f1f-490b7d11bc8b"
   style="fill:#353535;fill-opacity:1;stroke-width:0" />
      </g>
      <g
   id="id-a3e447cd-b4dd-493a-a8ca-89d6f602c996"
   style="fill:#353535;fill-opacity:1;stroke-width:0">
        <path
   d="m 1.921875,-4.609375 c -0.0625,-0.15625 -0.125,-0.15625 -0.265625,-0.15625 H 0.4375 v 0.25 h 0.15625 c 0.546875,0 0.5625,0.078125 0.5625,0.328125 V -0.75 c 0,0.1875 0,0.5 -0.71875,0.5 V 0 C 0.71875,-0.015625 1,-0.03125 1.28125,-0.03125 1.5625,-0.03125 1.84375,-0.015625 2.125,0 v -0.25 c -0.703125,0 -0.703125,-0.3125 -0.703125,-0.5 v -3.6875 l 1.8125,4.28125 C 3.265625,-0.078125 3.296875,0 3.40625,0 3.453125,0 3.515625,-0.015625 3.578125,-0.140625 L 5.421875,-4.5 v 3.9375 C 5.421875,-0.328125 5.40625,-0.25 4.875,-0.25 H 4.703125 V 0 c 0.328125,-0.015625 0.71875,-0.03125 1.015625,-0.03125 0.28125,0 0.671875,0.015625 1,0.03125 V -0.25 H 6.5625 C 6.015625,-0.25 6,-0.328125 6,-0.5625 v -3.625 c 0,-0.25 0.015625,-0.328125 0.5625,-0.328125 h 0.15625 v -0.25 H 5.515625 c -0.140625,0 -0.203125,0 -0.265625,0.140625 l -1.671875,3.953125 z m 0,0"
   id="id-5264ccb9-0180-4ef1-a726-80df50b26e13"
   style="fill:#353535;fill-opacity:1;stroke-width:0" />
      </g>
      <g
   id="id-3f65de8e-9a9f-4c3e-b1cc-911b1fcac03c"
   style="fill:#353535;fill-opacity:1;stroke-width:0">
        <path
   d="M 3.59375,-2.21875 C 3.59375,-2.984375 3.5,-3.546875 3.1875,-4.03125 2.96875,-4.34375 2.53125,-4.625 1.984375,-4.625 c -1.625,0 -1.625,1.90625 -1.625,2.40625 0,0.5 0,2.359375 1.625,2.359375 1.609375,0 1.609375,-1.859375 1.609375,-2.359375 z M 1.984375,-0.0625 c -0.328125,0 -0.75,-0.1875 -0.890625,-0.75 C 1,-1.21875 1,-1.796875 1,-2.3125 1,-2.828125 1,-3.359375 1.09375,-3.734375 1.25,-4.28125 1.6875,-4.4375 1.984375,-4.4375 c 0.375,0 0.734375,0.234375 0.859375,0.640625 0.109375,0.375 0.125,0.875 0.125,1.484375 0,0.515625 0,1.03125 -0.09375,1.46875 -0.140625,0.640625 -0.609375,0.78125 -0.890625,0.78125 z m 0,0"
   id="id-fb367995-ae57-4b26-b756-6faec69f771d"
   style="fill:#353535;fill-opacity:1;stroke-width:0" />
      </g>
      <g
   id="id-27a4b4c7-27e7-4916-9048-8feaa463c2e1"
   style="fill:#353535;fill-opacity:1;stroke-width:0">
        <path
   d="m 6.84375,-3.265625 c 0.15625,0 0.34375,0 0.34375,-0.1875 C 7.1875,-3.65625 7,-3.65625 6.859375,-3.65625 h -5.96875 c -0.140625,0 -0.328125,0 -0.328125,0.203125 0,0.1875 0.1875,0.1875 0.328125,0.1875 z m 0.015625,1.9375 c 0.140625,0 0.328125,0 0.328125,-0.203125 0,-0.1875 -0.1875,-0.1875 -0.34375,-0.1875 H 0.890625 c -0.140625,0 -0.328125,0 -0.328125,0.1875 0,0.203125 0.1875,0.203125 0.328125,0.203125 z m 0,0"
   id="id-6f0ac358-17eb-45cb-adf1-154690b9ab5c"
   style="fill:#353535;fill-opacity:1;stroke-width:0" />
      </g>
      <g
   id="id-ebd3a71c-2d96-41d2-9234-1df1df23d672"
   style="fill:#353535;fill-opacity:1;stroke-width:0">
        <path
   d="m 4.578125,-3.1875 c 0,-0.796875 -0.046875,-1.59375 -0.390625,-2.328125 -0.453125,-0.96875 -1.28125,-1.125 -1.6875,-1.125 -0.609375,0 -1.328125,0.265625 -1.75,1.1875 -0.3125,0.6875 -0.359375,1.46875 -0.359375,2.265625 0,0.75 0.03125,1.640625 0.453125,2.40625 0.421875,0.796875 1.15625,1 1.640625,1 0.53125,0 1.296875,-0.203125 1.734375,-1.15625 0.3125,-0.6875 0.359375,-1.46875 0.359375,-2.25 z M 2.484375,0 C 2.09375,0 1.5,-0.25 1.328125,-1.203125 1.21875,-1.796875 1.21875,-2.71875 1.21875,-3.3125 c 0,-0.640625 0,-1.296875 0.078125,-1.828125 0.1875,-1.1875 0.9375,-1.28125 1.1875,-1.28125 0.328125,0 0.984375,0.1875 1.171875,1.171875 0.109375,0.5625 0.109375,1.3125 0.109375,1.9375 0,0.75 0,1.421875 -0.109375,2.0625 C 3.5,-0.296875 2.9375,0 2.484375,0 Z m 0,0"
   id="id-be0482d2-6342-440a-8be7-6cb2e88340b2"
   style="fill:#353535;fill-opacity:1;stroke-width:0" />
      </g>
      <g
   id="id-6e2d6a1e-0b3f-45be-9f10-780a333be1c9"
   style="fill:#353535;fill-opacity:1;stroke-width:0">
        <path
   d="m 4.46875,-2 c 0,-1.1875 -0.8125,-2.1875 -1.890625,-2.1875 -0.46875,0 -0.90625,0.15625 -1.265625,0.515625 V -5.625 c 0.203125,0.0625 0.53125,0.125 0.84375,0.125 1.234375,0 1.9375,-0.90625 1.9375,-1.03125 0,-0.0625 -0.03125,-0.109375 -0.109375,-0.109375 0,0 -0.03125,0 -0.078125,0.03125 C 3.703125,-6.515625 3.21875,-6.3125 2.546875,-6.3125 2.15625,-6.3125 1.6875,-6.390625 1.21875,-6.59375 1.140625,-6.625 1.125,-6.625 1.109375,-6.625 1,-6.625 1,-6.546875 1,-6.390625 V -3.4375 c 0,0.171875 0,0.25 0.140625,0.25 0.078125,0 0.09375,-0.015625 0.140625,-0.078125 C 1.390625,-3.421875 1.75,-3.96875 2.5625,-3.96875 c 0.515625,0 0.765625,0.453125 0.84375,0.640625 0.15625,0.375 0.1875,0.75 0.1875,1.25 0,0.359375 0,0.953125 -0.25,1.375 C 3.109375,-0.3125 2.734375,-0.0625 2.28125,-0.0625 c -0.71875,0 -1.296875,-0.53125 -1.46875,-1.109375 0.03125,0 0.0625,0.015625 0.171875,0.015625 0.328125,0 0.5,-0.25 0.5,-0.484375 0,-0.25 -0.171875,-0.5 -0.5,-0.5 C 0.84375,-2.140625 0.5,-2.0625 0.5,-1.609375 0.5,-0.75 1.1875,0.21875 2.296875,0.21875 3.453125,0.21875 4.46875,-0.734375 4.46875,-2 Z m 0,0"
   id="id-53aeb494-c5a2-43d3-8d97-ae2c709971ca"
   style="fill:#353535;fill-opacity:1;stroke-width:0" />
      </g>
    </g>
  </defs>
  <g
   fill-opacity="1"
   id="id-7eedc1e7-570d-4812-8c50-397a8255998d"
   transform="translate(-149.118,-126.18)"
   style="fill:#353535;fill-opacity:1;stroke-width:0">
    <g
   transform="translate(148.712,134.765)"
   style="fill:#353535;fill-opacity:1;stroke-width:0"
   id="g38"><path
   d="m 3.734375,-6.125 c 0.0625,-0.234375 0.09375,-0.328125 0.28125,-0.359375 C 4.109375,-6.5 4.421875,-6.5 4.625,-6.5 c 0.703125,0 1.8125,0 1.8125,0.984375 0,0.34375 -0.15625,1.03125 -0.546875,1.421875 -0.265625,0.25 -0.78125,0.578125 -1.6875,0.578125 H 3.09375 Z m 1.4375,2.734375 c 1.015625,-0.21875 2.1875,-0.921875 2.1875,-1.921875 0,-0.859375 -0.890625,-1.5 -2.203125,-1.5 H 2.328125 c -0.203125,0 -0.296875,0 -0.296875,0.203125 C 2.03125,-6.5 2.125,-6.5 2.3125,-6.5 c 0.015625,0 0.203125,0 0.375,0.015625 0.1875,0.03125 0.265625,0.03125 0.265625,0.171875 0,0.03125 0,0.0625 -0.03125,0.1875 l -1.34375,5.34375 C 1.484375,-0.390625 1.46875,-0.3125 0.671875,-0.3125 0.5,-0.3125 0.40625,-0.3125 0.40625,-0.109375 0.40625,0 0.53125,0 0.546875,0 c 0.28125,0 0.984375,-0.03125 1.25,-0.03125 0.28125,0 1,0.03125 1.28125,0.03125 0.078125,0 0.1875,0 0.1875,-0.203125 0,-0.109375 -0.078125,-0.109375 -0.28125,-0.109375 -0.359375,0 -0.640625,0 -0.640625,-0.171875 0,-0.0625 0.015625,-0.109375 0.03125,-0.171875 l 0.65625,-2.640625 h 1.1875 c 0.90625,0 1.078125,0.5625 1.078125,0.90625 0,0.140625 -0.078125,0.453125 -0.140625,0.6875 C 5.09375,-1.421875 5,-1.0625 5,-0.859375 5,0.21875 6.203125,0.21875 6.328125,0.21875 c 0.84375,0 1.203125,-1 1.203125,-1.140625 0,-0.125 -0.109375,-0.125 -0.125,-0.125 -0.09375,0 -0.109375,0.0625 -0.125,0.140625 C 7.03125,-0.171875 6.59375,0 6.375,0 6.046875,0 5.96875,-0.21875 5.96875,-0.609375 c 0,-0.3125 0.0625,-0.8125 0.109375,-1.140625 0.015625,-0.140625 0.03125,-0.328125 0.03125,-0.46875 0,-0.765625 -0.671875,-1.078125 -0.9375,-1.171875 z m 0,0"
   id="id-ea1b9cbc-a429-45c1-874d-b212f820f7f2"
   style="fill:#353535;fill-opacity:1;stroke-width:0" />
      </g></g>
  <g
   fill-opacity="1"
   id="id-15d0f9f3-284a-4815-99b3-c2f88c418085"
   transform="translate(-149.118,-126.18)"
   style="fill:#353535;fill-opacity:1;stroke-width:0">
    <g
   transform="translate(156.354,131.149)"
   style="fill:#353535;fill-opacity:1;stroke-width:0"
   id="g39"><path
   d="M 3.125,-4.8125 C 3.09375,-4.921875 3.0625,-4.96875 2.9375,-4.96875 c -0.140625,0 -0.15625,0.046875 -0.203125,0.15625 L 1.125,-0.734375 C 1.0625,-0.5625 0.9375,-0.25 0.3125,-0.25 V 0 C 0.546875,-0.015625 0.796875,-0.03125 1.03125,-0.03125 1.3125,-0.03125 1.828125,0 1.875,0 v -0.25 c -0.3125,0 -0.515625,-0.140625 -0.515625,-0.328125 0,-0.0625 0.015625,-0.078125 0.046875,-0.140625 L 1.734375,-1.578125 H 3.71875 L 4.125,-0.5625 c 0,0.03125 0.03125,0.078125 0.03125,0.109375 C 4.15625,-0.25 3.78125,-0.25 3.59375,-0.25 V 0 C 3.9375,-0.015625 4.390625,-0.03125 4.625,-0.03125 4.953125,-0.03125 5.484375,0 5.546875,0 v -0.25 h -0.125 c -0.46875,0 -0.515625,-0.078125 -0.59375,-0.265625 z m -0.40625,0.71875 0.890625,2.265625 h -1.78125 z m 0,0"
   id="id-8ed48bb5-3c22-4758-9d60-baaf75b39b31"
   style="fill:#353535;fill-opacity:1;stroke-width:0" />
      </g><g
   transform="translate(162.235,131.149)"
   style="fill:#353535;fill-opacity:1;stroke-width:0"
   id="g40"><path
   d="m 1.921875,-4.609375 c -0.0625,-0.15625 -0.125,-0.15625 -0.265625,-0.15625 H 0.4375 v 0.25 h 0.15625 c 0.546875,0 0.5625,0.078125 0.5625,0.328125 V -0.75 c 0,0.1875 0,0.5 -0.71875,0.5 V 0 C 0.71875,-0.015625 1,-0.03125 1.28125,-0.03125 1.5625,-0.03125 1.84375,-0.015625 2.125,0 v -0.25 c -0.703125,0 -0.703125,-0.3125 -0.703125,-0.5 v -3.6875 l 1.8125,4.28125 C 3.265625,-0.078125 3.296875,0 3.40625,0 3.453125,0 3.515625,-0.015625 3.578125,-0.140625 L 5.421875,-4.5 v 3.9375 C 5.421875,-0.328125 5.40625,-0.25 4.875,-0.25 H 4.703125 V 0 c 0.328125,-0.015625 0.71875,-0.03125 1.015625,-0.03125 0.28125,0 0.671875,0.015625 1,0.03125 V -0.25 H 6.5625 C 6.015625,-0.25 6,-0.328125 6,-0.5625 v -3.625 c 0,-0.25 0.015625,-0.328125 0.5625,-0.328125 h 0.15625 v -0.25 H 5.515625 c -0.140625,0 -0.203125,0 -0.265625,0.140625 l -1.671875,3.953125 z m 0,0"
   id="id-0c265582-6d20-4407-a184-23fe0765e9f0"
   style="fill:#353535;fill-opacity:1;stroke-width:0" />
      </g></g>
  <g
   fill-opacity="1"
   id="id-fafe7207-beb6-417e-8bf2-d43573259ea7"
   transform="translate(-149.118,-126.18)"
   style="fill:#353535;fill-opacity:1;stroke-width:0">
    <g
   transform="translate(156.277,137.237)"
   style="fill:#353535;fill-opacity:1;stroke-width:0"
   id="g41"><path
   d="M 3.59375,-2.21875 C 3.59375,-2.984375 3.5,-3.546875 3.1875,-4.03125 2.96875,-4.34375 2.53125,-4.625 1.984375,-4.625 c -1.625,0 -1.625,1.90625 -1.625,2.40625 0,0.5 0,2.359375 1.625,2.359375 1.609375,0 1.609375,-1.859375 1.609375,-2.359375 z M 1.984375,-0.0625 c -0.328125,0 -0.75,-0.1875 -0.890625,-0.75 C 1,-1.21875 1,-1.796875 1,-2.3125 1,-2.828125 1,-3.359375 1.09375,-3.734375 1.25,-4.28125 1.6875,-4.4375 1.984375,-4.4375 c 0.375,0 0.734375,0.234375 0.859375,0.640625 0.109375,0.375 0.125,0.875 0.125,1.484375 0,0.515625 0,1.03125 -0.09375,1.46875 -0.140625,0.640625 -0.609375,0.78125 -0.890625,0.78125 z m 0,0"
   id="id-86a82191-54ac-4d92-a514-1e448d34350c"
   style="fill:#353535;fill-opacity:1;stroke-width:0" />
      </g></g>
  <g
   fill-opacity="1"
   id="id-268fd090-fe82-4464-ac51-8ea76eb73b5f"
   transform="translate(-149.118,-126.18)"
   style="fill:#353535;fill-opacity:1;stroke-width:0">
    <g
   transform="translate(172.668,134.765)"
   style="fill:#353535;fill-opacity:1;stroke-width:0"
   id="g42"><path
   d="m 6.84375,-3.265625 c 0.15625,0 0.34375,0 0.34375,-0.1875 C 7.1875,-3.65625 7,-3.65625 6.859375,-3.65625 h -5.96875 c -0.140625,0 -0.328125,0 -0.328125,0.203125 0,0.1875 0.1875,0.1875 0.328125,0.1875 z m 0.015625,1.9375 c 0.140625,0 0.328125,0 0.328125,-0.203125 0,-0.1875 -0.1875,-0.1875 -0.34375,-0.1875 H 0.890625 c -0.140625,0 -0.328125,0 -0.328125,0.1875 0,0.203125 0.1875,0.203125 0.328125,0.203125 z m 0,0"
   id="id-6feed592-0d4c-4874-b1cb-c3356c211a6c"
   style="fill:#353535;fill-opacity:1;stroke-width:0" />
      </g></g>
  <g
   fill-opacity="1"
   id="id-ce2fa611-5e0a-4a0a-8b60-07fc16d6119f"
   transform="translate(-149.118,-126.18)"
   style="fill:#353535;fill-opacity:1;stroke-width:0">
    <g
   transform="translate(183.187,134.765)"
   style="fill:#353535;fill-opacity:1;stroke-width:0"
   id="g43"><path
   d="m 4.578125,-3.1875 c 0,-0.796875 -0.046875,-1.59375 -0.390625,-2.328125 -0.453125,-0.96875 -1.28125,-1.125 -1.6875,-1.125 -0.609375,0 -1.328125,0.265625 -1.75,1.1875 -0.3125,0.6875 -0.359375,1.46875 -0.359375,2.265625 0,0.75 0.03125,1.640625 0.453125,2.40625 0.421875,0.796875 1.15625,1 1.640625,1 0.53125,0 1.296875,-0.203125 1.734375,-1.15625 0.3125,-0.6875 0.359375,-1.46875 0.359375,-2.25 z M 2.484375,0 C 2.09375,0 1.5,-0.25 1.328125,-1.203125 1.21875,-1.796875 1.21875,-2.71875 1.21875,-3.3125 c 0,-0.640625 0,-1.296875 0.078125,-1.828125 0.1875,-1.1875 0.9375,-1.28125 1.1875,-1.28125 0.328125,0 0.984375,0.1875 1.171875,1.171875 0.109375,0.5625 0.109375,1.3125 0.109375,1.9375 0,0.75 0,1.421875 -0.109375,2.0625 C 3.5,-0.296875 2.9375,0 2.484375,0 Z m 0,0"
   id="id-5072dfc4-322d-45d6-ad25-33762d0f73e4"
   style="fill:#353535;fill-opacity:1;stroke-width:0" />
      </g></g>
  <g
   fill-opacity="1"
   id="id-f066d1d8-8e0c-4a6e-aa1f-9c6e3baf5d28"
   transform="translate(-149.118,-126.18)"
   style="fill:#353535;fill-opacity:1;stroke-width:0">
    <g
   transform="translate(188.165,134.765)"
   style="fill:#353535;fill-opacity:1;stroke-width:0"
   id="g44"><path
   d="m 1.90625,-0.53125 c 0,-0.28125 -0.234375,-0.53125 -0.515625,-0.53125 -0.296875,0 -0.53125,0.25 -0.53125,0.53125 C 0.859375,-0.234375 1.09375,0 1.390625,0 1.671875,0 1.90625,-0.234375 1.90625,-0.53125 Z m 0,0"
   id="id-fdecae3f-6c26-49f0-a8a1-d28e3cb72821"
   style="fill:#353535;fill-opacity:1;stroke-width:0" />
      </g></g>
  <g
   fill-opacity="1"
   id="id-cf7ee1cf-f3b3-456c-bf56-ae333d257ae5"
   transform="translate(-149.118,-126.18)"
   style="fill:#353535;fill-opacity:1;stroke-width:0">
    <g
   transform="translate(190.932,134.765)"
   style="fill:#353535;fill-opacity:1;stroke-width:0"
   id="g45"><path
   d="m 4.46875,-2 c 0,-1.1875 -0.8125,-2.1875 -1.890625,-2.1875 -0.46875,0 -0.90625,0.15625 -1.265625,0.515625 V -5.625 c 0.203125,0.0625 0.53125,0.125 0.84375,0.125 1.234375,0 1.9375,-0.90625 1.9375,-1.03125 0,-0.0625 -0.03125,-0.109375 -0.109375,-0.109375 0,0 -0.03125,0 -0.078125,0.03125 C 3.703125,-6.515625 3.21875,-6.3125 2.546875,-6.3125 2.15625,-6.3125 1.6875,-6.390625 1.21875,-6.59375 1.140625,-6.625 1.125,-6.625 1.109375,-6.625 1,-6.625 1,-6.546875 1,-6.390625 V -3.4375 c 0,0.171875 0,0.25 0.140625,0.25 0.078125,0 0.09375,-0.015625 0.140625,-0.078125 C 1.390625,-3.421875 1.75,-3.96875 2.5625,-3.96875 c 0.515625,0 0.765625,0.453125 0.84375,0.640625 0.15625,0.375 0.1875,0.75 0.1875,1.25 0,0.359375 0,0.953125 -0.25,1.375 C 3.109375,-0.3125 2.734375,-0.0625 2.28125,-0.0625 c -0.71875,0 -1.296875,-0.53125 -1.46875,-1.109375 0.03125,0 0.0625,0.015625 0.171875,0.015625 0.328125,0 0.5,-0.25 0.5,-0.484375 0,-0.25 -0.171875,-0.5 -0.5,-0.5 C 0.84375,-2.140625 0.5,-2.0625 0.5,-1.609375 0.5,-0.75 1.1875,0.21875 2.296875,0.21875 3.453125,0.21875 4.46875,-0.734375 4.46875,-2 Z m 0,0"
   id="id-7678f9fa-97ac-4ed6-acfa-cc536f7b3ebd"
   style="fill:#353535;fill-opacity:1;stroke-width:0" />
      </g></g>
</g></g></svg>
